<?xml version="1.0" encoding="utf-8"?>
<!-- Generator: Adobe Illustrator 16.0.3, SVG Export Plug-In . SVG Version: 6.00 Build 0)  -->
<!DOCTYPE svg PUBLIC "-//W3C//DTD SVG 1.1//EN" "http://www.w3.org/Graphics/SVG/1.1/DTD/svg11.dtd">
<svg version="1.1" id="Layer_1" xmlns="http://www.w3.org/2000/svg" xmlns:xlink="http://www.w3.org/1999/xlink" x="0px" y="0px"
	 width="600px" height="100px" viewBox="0 0 600 100" enable-background="new 0 0 600 100" xml:space="preserve">
<polygon fill="#F47836" points="149.967,20.166 149.967,71.251 152.311,71.251 152.311,20.166 149.967,20.166 "/>
<g>
	<polygon fill="#FFFFFF" points="120.493,62.055 120.493,49.16 132.375,49.16 132.375,40.657 120.493,40.657 120.493,28.613 
		133.538,28.613 133.538,33.285 142.143,33.285 142.143,20.181 107.689,20.181 107.689,28.613 110.916,28.613 110.916,62.055 
		107.701,62.055 107.701,70.555 123.603,70.555 123.603,62.055 120.493,62.055 	"/>
	<path fill="#FFFFFF" d="M103.207,51.517V28.611h3.185v-8.43H90.454v8.43h3.108v20.058c0,8.408-0.973,12.448-7.01,12.448
		c-6.038,0-7.009-4.04-7.009-12.448V28.611h3.083v-8.43h-15.96v8.43h3.162v22.906c0,5.001,0,9.104,2.36,12.786
		c2.636,4.169,7.425,6.817,14.364,6.817C98.836,71.12,103.207,64.72,103.207,51.517L103.207,51.517z"/>
</g>
<g>
	<path fill="#FFFFFF" d="M161.105,39.431v-0.724c0.537-0.25,0.975-0.51,1.315-0.778c0.054-0.376,0.099-0.984,0.134-1.825
		c0.072-1.538,0.107-2.656,0.107-3.354v-6.037c0-0.232-0.013-1.104-0.04-2.616c-0.027-1.01-0.089-1.627-0.188-1.851
		c-0.045-0.089-0.112-0.156-0.201-0.201c-0.242-0.107-0.885-0.188-1.931-0.242v-1.033l3.112-0.023
		c0.617-0.002,1.207-0.004,1.771-0.004c1.225,0,2.589-0.013,4.091-0.041l2.723-0.067c0.322,0,0.975,0.018,1.958,0.054
		c0.089,0,0.237,0.027,0.443,0.081l0.094,0.174l-0.255,1.932c-0.008,0.134-0.053,0.778-0.134,1.932h-1.046
		c-0.019-1.055-0.059-1.704-0.121-1.945c-0.036-0.125-0.089-0.214-0.16-0.268c-0.117-0.081-0.473-0.152-1.071-0.215
		c-0.883-0.098-1.749-0.147-2.597-0.147c-0.794,0-1.606,0.032-2.436,0.094c-0.126,1.019-0.188,2.313-0.188,3.882v2.772
		c0.607,0.045,1.24,0.067,1.9,0.067c0.205,0,0.946-0.019,2.221-0.054c0.482-0.008,0.765-0.04,0.85-0.094
		c0.084-0.054,0.149-0.148,0.194-0.282c0.107-0.34,0.169-0.907,0.188-1.704h1.086l-0.067,2.951l0.067,2.938h-1.086
		c0.009-1.038-0.059-1.677-0.203-1.918c-0.108-0.18-0.303-0.291-0.583-0.335c-0.624-0.099-1.423-0.147-2.398-0.147
		c-0.876,0-1.599,0.031-2.168,0.094v5.625c0,0.628,0.014,1.167,0.041,1.619c0.723,0.063,1.58,0.094,2.57,0.094
		c0.964,0,1.854-0.031,2.671-0.094c0.816-0.063,1.319-0.152,1.506-0.268c0.062-0.036,0.12-0.116,0.174-0.242
		c0.16-0.43,0.331-1.243,0.509-2.441h1.1c-0.196,1.771-0.295,3.228-0.295,4.373l-0.175,0.174c-0.572,0.062-1.386,0.094-2.441,0.094
		l-2.16-0.047c-2.128-0.032-3.595-0.047-4.399-0.047C165.372,39.337,163.877,39.369,161.105,39.431z"/>
	<path fill="#FFFFFF" d="M176.793,39.431v-1.046c0.698,0,1.181-0.048,1.448-0.147c0.126-0.044,0.22-0.119,0.282-0.227
		c0.089-0.17,0.139-0.491,0.147-0.963l0.054-1.191c0.008-0.249,0.013-0.656,0.013-1.217v-1.752c0-0.793-0.022-1.757-0.067-2.89
		c-0.027-0.57-0.065-0.893-0.115-0.97c-0.049-0.076-0.128-0.131-0.237-0.167c-0.17-0.063-0.679-0.107-1.526-0.134v-1.046
		c1.628-0.277,2.696-0.483,3.206-0.617s1.086-0.349,1.73-0.644l0.362,0.161v2.165l2.438-1.963c0.285-0.116,0.528-0.194,0.729-0.234
		c0.202-0.041,0.472-0.061,0.811-0.061c1.071,0,1.881,0.172,2.43,0.517c0.549,0.345,1.002,0.926,1.359,1.741l2.445-1.963
		c0.287-0.116,0.531-0.194,0.732-0.234c0.202-0.041,0.474-0.061,0.814-0.061c0.886,0,1.575,0.109,2.062,0.329
		c0.489,0.218,0.895,0.516,1.216,0.89c0.323,0.375,0.552,0.778,0.686,1.206c0.135,0.43,0.201,1.09,0.201,1.984
		c0,0.981-0.008,1.634-0.027,1.956c-0.008,0.107-0.013,0.237-0.013,0.389v1.393c0,1.429,0.024,2.343,0.073,2.74
		c0.05,0.397,0.136,0.647,0.257,0.75c0.121,0.104,0.39,0.167,0.804,0.195c0.144,0.008,0.396,0.031,0.756,0.066v1.046
		c-1.225-0.062-2.235-0.094-3.031-0.094c-0.903,0-1.671,0.032-2.308,0.094l-0.187-0.255l0.151-2.428
		c0.032-0.983,0.049-1.829,0.049-2.535v-1.02c0-1.591-0.072-2.595-0.214-3.011c-0.143-0.416-0.382-0.742-0.718-0.979
		c-0.335-0.237-0.757-0.355-1.266-0.355c-0.573,0-1.06,0.146-1.462,0.435c-0.402,0.29-0.654,0.554-0.752,0.791
		s-0.143,0.713-0.134,1.426v3.242l0.033,1.339l0.033,1.086c0.009,0.331,0.041,0.557,0.093,0.683c0.053,0.125,0.129,0.218,0.227,0.28
		c0.08,0.045,0.248,0.085,0.506,0.121c0.506,0.062,0.87,0.107,1.092,0.134v1.046c-0.796-0.035-1.94-0.054-3.434-0.054
		c-1.663,0-2.893,0.019-3.688,0.054v-1.046c0.17-0.026,0.392-0.054,0.662-0.08c0.397-0.027,0.647-0.074,0.75-0.141
		c0.104-0.067,0.188-0.2,0.25-0.401s0.095-0.667,0.095-1.4l0.027-2.372v-1.902c0-0.911-0.055-1.556-0.167-1.936
		c-0.111-0.379-0.338-0.696-0.68-0.95c-0.343-0.255-0.786-0.382-1.328-0.382c-0.596,0-1.099,0.152-1.508,0.455
		c-0.409,0.304-0.679,0.607-0.811,0.911c-0.045,0.17-0.062,0.871-0.053,2.103v2.344c0,1.206,0.022,2.13,0.067,2.774
		c0.018,0.339,0.063,0.553,0.134,0.642c0.072,0.09,0.193,0.157,0.362,0.201c0.125,0.037,0.541,0.08,1.248,0.134v1.046
		c-0.964-0.035-2.124-0.054-3.481-0.054C178.896,39.377,177.686,39.396,176.793,39.431z"/>
	<path fill="#FFFFFF" d="M212.563,37.366l-0.59,1.314c-0.733,0.448-1.489,0.778-2.267,0.993c-0.581,0.152-1.243,0.228-1.985,0.228
		c-0.885,0-1.666-0.103-2.34-0.309c-0.676-0.206-1.252-0.488-1.731-0.845c-0.478-0.357-0.899-0.796-1.261-1.314
		c-0.363-0.519-0.624-1.118-0.785-1.797c-0.161-0.679-0.241-1.422-0.241-2.227c0-1.172,0.156-2.218,0.469-3.139
		c0.215-0.644,0.465-1.109,0.751-1.395c0.179-0.179,0.645-0.515,1.395-1.006c0.752-0.492,1.296-0.813,1.637-0.965
		c0.625-0.277,1.363-0.416,2.213-0.416c1.199,0,2.182,0.25,2.951,0.751c0.77,0.501,1.313,1.141,1.63,1.918
		c0.318,0.778,0.477,1.722,0.477,2.831c0,0.25-0.008,0.492-0.027,0.724c-0.223,0.072-0.563,0.152-1.019,0.241
		c-0.609,0.116-1.02,0.179-1.234,0.188c-0.671,0.053-1.556,0.085-2.656,0.094c-1.1,0.008-1.708,0.018-1.824,0.026
		c-0.117,0.009-0.247,0.014-0.39,0.014h-0.885c0.072,1.413,0.51,2.529,1.314,3.347c0.805,0.818,1.798,1.227,2.979,1.227
		c0.51,0,0.979-0.055,1.409-0.167c0.428-0.112,0.993-0.343,1.69-0.691L212.563,37.366z M209.371,31.799
		c0.036-1.417-0.156-2.411-0.577-2.981c-0.43-0.562-0.984-0.842-1.664-0.842c-0.698,0-1.274,0.294-1.73,0.883
		c-0.465,0.597-0.68,1.577-0.645,2.94c0.529,0.081,1.409,0.121,2.644,0.121C208.185,31.919,208.842,31.879,209.371,31.799z"/>
	<path fill="#FFFFFF" d="M222.106,38.385v1.046c-1.01-0.045-2.137-0.067-3.379-0.067c-1.387,0-2.826,0.022-4.32,0.067v-1.046
		c0.697,0,1.18-0.048,1.449-0.147c0.125-0.044,0.219-0.119,0.282-0.227c0.088-0.17,0.139-0.491,0.147-0.963l0.054-1.191
		c0.008-0.249,0.014-0.656,0.014-1.217v-1.752c0-0.793-0.023-1.757-0.068-2.89c-0.027-0.57-0.065-0.893-0.115-0.97
		c-0.05-0.076-0.128-0.131-0.237-0.167c-0.171-0.063-0.679-0.107-1.526-0.134v-1.046c1.636-0.277,2.71-0.483,3.222-0.617
		c0.512-0.134,1.093-0.349,1.739-0.644l0.364,0.161l-0.026,2.709c0.578-0.599,1.021-1.095,1.333-1.489
		c0.462-0.555,0.808-0.907,1.04-1.06c0.32-0.215,0.742-0.322,1.266-0.322c0.33,0,0.627,0.054,0.895,0.161l-0.094,1.905
		c-0.022,1.037-0.04,1.631-0.054,1.784l-0.563,0.174c-0.223-0.295-0.438-0.501-0.644-0.617c-0.331-0.188-0.692-0.282-1.087-0.282
		c-0.527,0-0.981,0.164-1.36,0.49c-0.381,0.327-0.606,0.66-0.678,1c-0.035,0.196-0.053,0.95-0.053,2.263v1.338l0.026,1.822
		c0.009,0.687,0.033,1.108,0.074,1.265c0.041,0.157,0.132,0.278,0.275,0.369c0.143,0.089,0.452,0.151,0.925,0.187L222.106,38.385z"
		/>
	<path fill="#FFFFFF" d="M226.649,36.306l1.862-1.354c-0.659-0.241-1.192-0.521-1.587-0.838c-0.398-0.317-0.716-0.736-0.954-1.254
		s-0.357-1.091-0.357-1.717c0-0.85,0.221-1.644,0.66-2.381c0.437-0.738,1.123-1.326,2.057-1.764
		c0.936-0.438,2.028-0.657,3.282-0.657c0.838,0,1.617,0.096,2.326,0.288c0.712,0.193,1.307,0.477,1.79,0.852
		c0.521,0.026,0.878,0.04,1.073,0.04c0.268,0,0.997-0.031,2.189-0.094l-0.188,1.663h-2.12c0.116,0.448,0.173,0.88,0.173,1.301
		c0,0.958-0.253,1.802-0.763,2.536c-0.51,0.733-1.226,1.296-2.153,1.69c-0.924,0.394-1.909,0.59-2.943,0.59
		c-0.281,0-0.667-0.018-1.169-0.054c-0.276,0.16-0.487,0.349-0.629,0.566c-0.146,0.217-0.215,0.419-0.215,0.605
		c0,0.16,0.062,0.312,0.181,0.454c0.123,0.142,0.288,0.236,0.501,0.28c0.295,0.063,1.035,0.094,2.216,0.094l3.299-0.081
		c0.966,0,1.713,0.112,2.239,0.335c0.528,0.223,0.924,0.563,1.18,1.019c0.261,0.457,0.391,1.06,0.391,1.812
		c0,1.118-0.265,2.127-0.793,3.031c-0.525,0.903-1.318,1.646-2.373,2.227c-1.333,0.725-2.92,1.086-4.764,1.086
		c-1.448,0-2.629-0.201-3.541-0.604c-0.913-0.402-1.552-0.88-1.917-1.435c-0.367-0.555-0.552-1.158-0.552-1.811
		c0-0.375,0.06-0.715,0.176-1.019c0.115-0.304,0.249-0.532,0.402-0.684c0.151-0.152,0.453-0.358,0.897-0.618
		c0.858-0.482,1.338-0.746,1.437-0.791c-0.483-0.054-0.916-0.228-1.303-0.523c-0.349-0.322-0.521-0.689-0.521-1.1
		c0-0.223,0.042-0.475,0.134-0.751C226.396,36.851,226.521,36.539,226.649,36.306z M229.451,39.753
		c-0.732,0.464-1.223,0.892-1.468,1.281c-0.245,0.389-0.368,0.825-0.368,1.308c0,0.813,0.334,1.494,1,2.039
		c0.663,0.545,1.663,0.818,2.998,0.818c1.394,0,2.46-0.327,3.2-0.979c0.735-0.652,1.103-1.48,1.103-2.482
		c0-0.483-0.073-0.852-0.218-1.106c-0.15-0.255-0.356-0.456-0.625-0.604c-0.269-0.147-0.64-0.233-1.116-0.255
		c-0.472-0.022-1.567-0.034-3.285-0.034C230.359,39.74,229.952,39.745,229.451,39.753z M228.967,30.524
		c0,1.234,0.215,2.114,0.648,2.643c0.429,0.528,0.989,0.792,1.682,0.792c0.759,0,1.345-0.309,1.748-0.925
		c0.288-0.448,0.43-1.119,0.43-2.013c0-1.252-0.199-2.127-0.606-2.629c-0.402-0.501-0.961-0.751-1.679-0.751
		c-0.682,0-1.222,0.228-1.625,0.684C229.167,28.781,228.967,29.514,228.967,30.524z"/>
	<path fill="#FFFFFF" d="M239.921,39.431v-0.993c1.002-0.072,1.573-0.149,1.717-0.234s0.231-0.245,0.268-0.477
		c0.089-0.493,0.134-1.759,0.134-3.801c0-2.804-0.041-4.397-0.121-4.782c-0.037-0.179-0.094-0.296-0.174-0.35
		c-0.178-0.116-0.788-0.179-1.825-0.188v-1.019c1.351-0.141,2.37-0.292,3.058-0.452c0.688-0.159,1.439-0.402,2.253-0.729
		l0.322,0.174c-0.107,1.395-0.161,2.705-0.161,3.931v4.561c0,1.556,0.037,2.477,0.107,2.763c0.037,0.161,0.107,0.269,0.214,0.322
		c0.242,0.116,0.828,0.192,1.758,0.228v1.046c-1.271-0.035-2.652-0.054-4.145-0.054C242.041,39.377,240.904,39.396,239.921,39.431z
		 M243.602,20.008c0.571,0,1.056,0.201,1.452,0.604c0.396,0.403,0.595,0.885,0.595,1.449c0,0.572-0.199,1.059-0.595,1.462
		c-0.396,0.402-0.88,0.604-1.452,0.604c-0.561,0-1.042-0.201-1.442-0.604c-0.401-0.403-0.603-0.89-0.603-1.462
		c0-0.564,0.198-1.046,0.595-1.449C242.548,20.209,243.033,20.008,243.602,20.008z"/>
	<path fill="#FFFFFF" d="M264.101,38.437v0.994c-1.219-0.062-2.213-0.094-2.985-0.094c-0.887,0-1.658,0.032-2.313,0.094
		l-0.241-0.241c0.017-0.188,0.076-0.961,0.174-2.321l0.067-2.2V33.61c0-1.565-0.06-2.594-0.182-3.085
		c-0.119-0.491-0.368-0.887-0.743-1.188c-0.375-0.3-0.876-0.449-1.503-0.449c-0.626,0-1.144,0.15-1.556,0.449
		c-0.412,0.3-0.67,0.602-0.778,0.906c-0.063,0.178-0.091,0.893-0.082,2.142v2.251c0,0.652,0.023,1.451,0.068,2.396
		c0.009,0.42,0.044,0.697,0.107,0.831c0.044,0.098,0.101,0.169,0.172,0.214c0.107,0.071,0.316,0.139,0.627,0.201
		c0.105,0.019,0.479,0.054,1.119,0.107v1.046c-0.975-0.035-2.169-0.054-3.582-0.054c-1.636,0-2.906,0.019-3.809,0.054v-1.046
		c0.697,0,1.18-0.048,1.448-0.147c0.125-0.044,0.219-0.119,0.283-0.227c0.089-0.17,0.138-0.491,0.147-0.963l0.054-1.191
		c0.009-0.249,0.013-0.656,0.013-1.217v-1.752c0-0.793-0.023-1.757-0.067-2.89c-0.027-0.57-0.065-0.893-0.115-0.97
		c-0.05-0.076-0.128-0.131-0.236-0.167c-0.173-0.063-0.681-0.107-1.527-0.134v-1.046c1.626-0.277,2.696-0.483,3.206-0.617
		c0.509-0.134,1.087-0.349,1.73-0.644l0.362,0.161v2.163l2.442-1.961c0.295-0.117,0.544-0.194,0.743-0.234
		c0.204-0.041,0.481-0.061,0.839-0.061c0.957,0,1.675,0.107,2.153,0.323c0.478,0.216,0.882,0.519,1.214,0.909
		c0.332,0.391,0.563,0.799,0.698,1.225c0.133,0.427,0.201,1.092,0.201,1.999c0,1.022-0.01,1.672-0.027,1.952
		c-0.009,0.107-0.013,0.237-0.013,0.39l0.013,1.386c0.01,1.517,0.035,2.454,0.074,2.813c0.041,0.358,0.121,0.59,0.244,0.693
		c0.121,0.104,0.389,0.168,0.803,0.196C263.497,38.38,263.75,38.402,264.101,38.437z"/>
	<path fill="#FFFFFF" d="M267.031,36.306l1.865-1.354c-0.661-0.241-1.192-0.521-1.589-0.838c-0.398-0.317-0.716-0.736-0.954-1.254
		c-0.236-0.518-0.354-1.091-0.354-1.717c0-0.85,0.219-1.644,0.658-2.381c0.438-0.738,1.125-1.326,2.058-1.764
		c0.935-0.438,2.029-0.657,3.281-0.657c0.841,0,1.618,0.096,2.327,0.288c0.712,0.193,1.309,0.477,1.792,0.852
		c0.519,0.026,0.875,0.04,1.073,0.04c0.268,0,0.997-0.031,2.187-0.094l-0.188,1.663h-2.12c0.117,0.448,0.174,0.88,0.174,1.301
		c0,0.958-0.254,1.802-0.764,2.536c-0.51,0.733-1.227,1.296-2.153,1.69c-0.924,0.394-1.907,0.59-2.944,0.59
		c-0.278,0-0.667-0.018-1.167-0.054c-0.278,0.16-0.487,0.349-0.63,0.566c-0.144,0.217-0.215,0.419-0.215,0.605
		c0,0.16,0.062,0.312,0.18,0.454c0.122,0.142,0.289,0.236,0.504,0.28c0.295,0.063,1.033,0.094,2.213,0.094l3.299-0.081
		c0.967,0,1.713,0.112,2.241,0.335c0.527,0.223,0.922,0.563,1.181,1.019c0.258,0.457,0.389,1.06,0.389,1.812
		c0,1.118-0.265,2.127-0.792,3.031c-0.527,0.903-1.318,1.646-2.374,2.227c-1.332,0.725-2.921,1.086-4.762,1.086
		c-1.448,0-2.629-0.201-3.541-0.604c-0.913-0.402-1.553-0.88-1.919-1.435c-0.366-0.555-0.549-1.158-0.549-1.811
		c0-0.375,0.057-0.715,0.174-1.019c0.117-0.304,0.251-0.532,0.403-0.684c0.151-0.152,0.453-0.358,0.899-0.618
		c0.858-0.482,1.337-0.746,1.435-0.791c-0.483-0.054-0.916-0.228-1.3-0.523c-0.349-0.322-0.523-0.689-0.523-1.1
		c0-0.223,0.044-0.475,0.134-0.751C266.78,36.851,266.906,36.539,267.031,36.306z M269.834,39.753
		c-0.733,0.464-1.222,0.892-1.469,1.281c-0.245,0.389-0.368,0.825-0.368,1.308c0,0.813,0.333,1.494,1,2.039
		c0.665,0.545,1.665,0.818,2.998,0.818c1.395,0,2.46-0.327,3.2-0.979c0.735-0.652,1.105-1.48,1.105-2.482
		c0-0.483-0.075-0.852-0.22-1.106c-0.15-0.255-0.356-0.456-0.625-0.604c-0.268-0.147-0.639-0.233-1.113-0.255
		c-0.473-0.022-1.569-0.034-3.287-0.034C270.742,39.74,270.334,39.745,269.834,39.753z M269.351,30.524
		c0,1.234,0.215,2.114,0.646,2.643c0.431,0.528,0.991,0.792,1.682,0.792c0.761,0,1.345-0.309,1.748-0.925
		c0.288-0.448,0.432-1.119,0.432-2.013c0-1.252-0.201-2.127-0.606-2.629s-0.963-0.751-1.681-0.751c-0.682,0-1.222,0.228-1.623,0.684
		C269.55,28.781,269.351,29.514,269.351,30.524z"/>
	<path fill="#FFFFFF" d="M286.832,21.778v-1.113l3.971,0.094l5.996-0.121c1.171,0,2.097,0.121,2.777,0.362
		c0.681,0.241,1.263,0.679,1.751,1.315c0.487,0.635,0.73,1.457,0.73,2.468s-0.236,1.95-0.703,2.817
		c-0.471,0.867-1.203,1.581-2.2,2.139c-0.998,0.559-2.063,0.838-3.2,0.838c-0.286,0-0.565-0.015-0.839-0.047
		c-0.272-0.031-0.542-0.078-0.81-0.141c-0.091-0.25-0.251-0.568-0.483-0.953l0.282-0.295c0.197,0.063,0.383,0.109,0.556,0.141
		c0.176,0.032,0.333,0.047,0.477,0.047c0.869,0,1.583-0.307,2.146-0.919c0.564-0.612,0.846-1.504,0.846-2.676
		c0-1.225-0.295-2.146-0.885-2.763c-0.59-0.617-1.413-0.925-2.468-0.925c-0.5,0-1.06,0.058-1.677,0.174
		c-0.044,0.555-0.071,1.369-0.08,2.442l-0.041,2.629v5.084c0,1.252,0.023,2.548,0.067,3.89c0.027,0.778,0.075,1.27,0.148,1.476
		c0.035,0.089,0.094,0.167,0.181,0.235c0.083,0.067,0.238,0.118,0.459,0.154l1.801,0.121v1.18c-2.29-0.062-4.01-0.094-5.165-0.094
		c-1.27,0-2.48,0.032-3.635,0.094v-1.18c0.993-0.019,1.619-0.094,1.878-0.228c0.08-0.045,0.144-0.112,0.188-0.201
		c0.064-0.125,0.112-0.452,0.148-0.979c0.098-1.431,0.147-3.023,0.147-4.776v-4.735l-0.067-2.522
		c-0.018-1.082-0.039-1.757-0.06-2.025c-0.023-0.269-0.064-0.461-0.126-0.577c-0.037-0.072-0.096-0.135-0.181-0.188
		c-0.084-0.053-0.24-0.102-0.459-0.147L286.832,21.778z"/>
	<path fill="#FFFFFF" d="M315.584,38.425v1.006c-1.029-0.045-1.941-0.067-2.736-0.067c-0.752,0-1.479,0.022-2.187,0.067
		l-0.121-0.147l0.121-1.757c-0.322,0.206-1.271,0.912-2.845,2.119c-0.401,0.089-0.787,0.134-1.153,0.134
		c-0.975,0-1.736-0.287-2.288-0.859c-0.548-0.572-0.823-1.395-0.823-2.468c0-0.724,0.122-1.319,0.367-1.784
		c0.248-0.464,0.51-0.807,0.793-1.026c0.281-0.22,0.718-0.431,1.308-0.637c1.412-0.501,2.961-0.894,4.642-1.18
		c0.017-1.065-0.201-1.874-0.658-2.428c-0.465-0.555-1.171-0.832-2.118-0.832c-0.387,0-0.752,0.049-1.101,0.147
		c-0.151,0.045-0.332,0.134-0.537,0.269l-0.563,1.354l-0.913-0.201l0.08-1.73c0.661-0.447,1.292-0.836,1.892-1.167
		c0.601-0.331,1.021-0.532,1.262-0.604c0.331-0.099,0.795-0.147,1.395-0.147c0.976,0,1.779,0.141,2.407,0.423
		c0.632,0.281,1.097,0.615,1.396,0.999c0.301,0.384,0.506,0.796,0.616,1.234c0.114,0.438,0.169,0.993,0.169,1.664
		c0,0.286-0.022,1.033-0.066,2.24c-0.027,0.805-0.041,1.462-0.041,1.972c0,1.591,0.044,2.557,0.135,2.897
		c0.036,0.161,0.107,0.268,0.215,0.322C314.372,38.309,314.822,38.372,315.584,38.425z M310.661,32.952
		c-0.762,0.161-1.457,0.355-2.086,0.583c-0.632,0.229-1.066,0.51-1.309,0.845c-0.241,0.335-0.361,0.758-0.361,1.268
		c0,0.572,0.145,1.014,0.437,1.328c0.289,0.313,0.673,0.469,1.146,0.469c0.402,0,0.806-0.116,1.215-0.349
		c0.405-0.232,0.726-0.528,0.958-0.885V32.952z"/>
	<path fill="#FFFFFF" d="M316.557,29.21v-0.604l1.208-0.756c0.197-0.124,0.386-0.255,0.563-0.397v-1.797
		c0-0.644-0.036-1.44-0.107-2.388c0.868-0.286,1.431-0.478,1.69-0.577c0.044-0.018,0.613-0.281,1.703-0.791l0.349,0.268
		l-0.134,1.396l-0.094,1.542l-0.121,2.348h0.443c1.189,0,2.088-0.045,2.696-0.134l-0.229,1.811
		c-0.107,0.019-0.205,0.027-0.295,0.027l-1.315-0.027h-1.301v4.48c0,1.377,0.014,2.191,0.04,2.441
		c0.037,0.42,0.186,0.749,0.449,0.986c0.265,0.236,0.647,0.355,1.147,0.355c0.305,0.009,0.548,0.002,0.73-0.02
		c0.183-0.022,0.419-0.065,0.704-0.128l0.215,0.543l-0.484,0.485c-0.394,0.403-0.737,0.758-1.034,1.063
		c-0.35,0.152-0.661,0.253-0.934,0.303c-0.274,0.049-0.554,0.074-0.84,0.074c-1.04,0-1.858-0.266-2.454-0.799
		c-0.597-0.533-0.894-1.198-0.894-1.995l0.067-4.433V29.17h-0.362C317.474,29.17,317.004,29.183,316.557,29.21z"/>
	<path fill="#FFFFFF" d="M340.898,38.385v1.046c-1.342-0.035-2.218-0.054-2.63-0.054c-0.277,0-1.189,0.019-2.736,0.054l-0.135-0.134
		l0.188-2.808c0.026-0.492,0.04-1.079,0.04-1.759v-2.606c0-1.218-0.203-2.061-0.61-2.531c-0.407-0.471-0.991-0.706-1.75-0.706
		c-0.556,0-1.039,0.139-1.45,0.417c-0.412,0.278-0.725,0.654-0.938,1.13c-0.081,0.17-0.121,0.538-0.121,1.103v1.695
		c0,0.699,0.012,1.589,0.032,2.67c0.024,1.081,0.052,1.718,0.089,1.916c0.026,0.108,0.063,0.188,0.109,0.242
		c0.044,0.054,0.107,0.099,0.188,0.134c0.136,0.063,0.343,0.108,0.62,0.135l1.041,0.054v1.046c-2.441-0.062-3.8-0.094-4.078-0.094
		l-3.326,0.094v-1.046c0.801-0.035,1.271-0.072,1.413-0.107c0.138-0.035,0.24-0.087,0.31-0.154c0.067-0.067,0.118-0.164,0.155-0.289
		c0.062-0.278,0.105-1.128,0.126-2.552c0.023-1.423,0.034-2.688,0.034-3.799v-4.349c0-1.441-0.035-2.748-0.106-3.92
		c-0.026-0.6-0.067-0.953-0.121-1.061c-0.036-0.063-0.084-0.111-0.147-0.147c-0.097-0.063-0.264-0.111-0.496-0.148
		c-0.151-0.027-0.54-0.054-1.167-0.081v-0.993c1.261-0.152,2.175-0.29,2.744-0.416c0.567-0.126,1.384-0.358,2.447-0.698l0.295,0.161
		l-0.107,3.19c-0.036,1.618-0.054,3.119-0.054,4.504v1.287l2.36-1.966c0.627-0.241,1.274-0.362,1.946-0.362
		c0.707,0,1.333,0.114,1.885,0.343c0.549,0.228,0.981,0.531,1.293,0.907c0.313,0.377,0.535,0.787,0.665,1.23
		c0.129,0.444,0.194,1.024,0.194,1.741c0,0.242-0.018,0.941-0.054,2.098c-0.026,0.852-0.04,1.551-0.04,2.098
		c0,1.657,0.03,2.63,0.094,2.917c0.044,0.197,0.144,0.336,0.295,0.417C339.547,38.318,340.049,38.367,340.898,38.385z"/>
	<path fill="#FFFFFF" d="M342.473,33.1c0-1.52,0.259-2.778,0.778-3.775c0.52-0.998,1.297-1.749,2.335-2.254
		c1.036-0.505,2.243-0.758,3.621-0.758c2.065,0,3.637,0.542,4.714,1.623c1.079,1.082,1.617,2.669,1.617,4.762
		c0,1.208-0.157,2.254-0.469,3.139c-0.313,0.885-0.734,1.598-1.261,2.14c-0.527,0.541-1.084,0.951-1.664,1.228
		c-0.993,0.464-2.109,0.697-3.354,0.697c-2.022,0-3.58-0.575-4.674-1.724C343.021,37.028,342.473,35.335,342.473,33.1z
		 M346.189,32.456c0,2.379,0.348,4.073,1.046,5.083c0.466,0.671,1.127,1.006,1.985,1.006c0.733,0,1.314-0.255,1.743-0.764
		c0.573-0.679,0.859-1.994,0.859-3.944c0-1.368-0.114-2.542-0.343-3.521c-0.227-0.98-0.564-1.662-1.005-2.046
		c-0.445-0.384-0.978-0.577-1.604-0.577c-0.536,0-1.005,0.141-1.407,0.422c-0.403,0.281-0.716,0.756-0.94,1.421
		C346.3,30.205,346.189,31.177,346.189,32.456z"/>
	<path fill="#FFFFFF" d="M358.98,36.306l1.864-1.354c-0.661-0.241-1.191-0.521-1.589-0.838c-0.398-0.317-0.717-0.736-0.954-1.254
		c-0.235-0.518-0.354-1.091-0.354-1.717c0-0.85,0.219-1.644,0.657-2.381s1.125-1.326,2.058-1.764
		c0.936-0.438,2.029-0.657,3.28-0.657c0.842,0,1.618,0.096,2.327,0.288c0.713,0.193,1.31,0.477,1.792,0.852
		c0.52,0.026,0.876,0.04,1.073,0.04c0.268,0,0.996-0.031,2.187-0.094l-0.188,1.663h-2.12c0.117,0.448,0.174,0.88,0.174,1.301
		c0,0.958-0.254,1.802-0.764,2.536c-0.51,0.733-1.227,1.296-2.154,1.69c-0.923,0.394-1.906,0.59-2.943,0.59
		c-0.278,0-0.667-0.018-1.167-0.054c-0.278,0.16-0.486,0.349-0.63,0.566c-0.145,0.217-0.215,0.419-0.215,0.605
		c0,0.16,0.062,0.312,0.18,0.454c0.122,0.142,0.289,0.236,0.504,0.28c0.295,0.063,1.033,0.094,2.214,0.094l3.299-0.081
		c0.966,0,1.714,0.112,2.241,0.335c0.526,0.223,0.922,0.563,1.181,1.019c0.258,0.457,0.389,1.06,0.389,1.812
		c0,1.118-0.265,2.127-0.791,3.031c-0.528,0.903-1.319,1.646-2.375,2.227c-1.331,0.725-2.921,1.086-4.762,1.086
		c-1.448,0-2.629-0.201-3.541-0.604c-0.913-0.402-1.553-0.88-1.919-1.435c-0.366-0.555-0.55-1.158-0.55-1.811
		c0-0.375,0.058-0.715,0.175-1.019c0.116-0.304,0.251-0.532,0.402-0.684c0.151-0.152,0.452-0.358,0.898-0.618
		c0.858-0.482,1.338-0.746,1.435-0.791c-0.482-0.054-0.915-0.228-1.301-0.523c-0.349-0.322-0.522-0.689-0.522-1.1
		c0-0.223,0.044-0.475,0.134-0.751C358.729,36.851,358.855,36.539,358.98,36.306z M361.783,39.753
		c-0.734,0.464-1.222,0.892-1.469,1.281c-0.246,0.389-0.368,0.825-0.368,1.308c0,0.813,0.333,1.494,1,2.039
		c0.665,0.545,1.665,0.818,2.996,0.818c1.396,0,2.461-0.327,3.2-0.979c0.736-0.652,1.106-1.48,1.106-2.482
		c0-0.483-0.075-0.852-0.221-1.106c-0.149-0.255-0.355-0.456-0.625-0.604c-0.268-0.147-0.639-0.233-1.112-0.255
		s-1.569-0.034-3.287-0.034C362.691,39.74,362.284,39.745,361.783,39.753z M361.301,30.524c0,1.234,0.215,2.114,0.646,2.643
		c0.432,0.528,0.991,0.792,1.683,0.792c0.762,0,1.345-0.309,1.748-0.925c0.287-0.448,0.432-1.119,0.432-2.013
		c0-1.252-0.201-2.127-0.606-2.629c-0.404-0.501-0.964-0.751-1.681-0.751c-0.682,0-1.222,0.228-1.622,0.684
		C361.5,28.781,361.301,29.514,361.301,30.524z"/>
	<path fill="#FFFFFF" d="M383.776,37.366l-0.59,1.314c-0.734,0.448-1.489,0.778-2.267,0.993c-0.581,0.152-1.244,0.228-1.985,0.228
		c-0.886,0-1.666-0.103-2.34-0.309c-0.677-0.206-1.254-0.488-1.732-0.845c-0.478-0.357-0.896-0.796-1.261-1.314
		c-0.36-0.519-0.623-1.118-0.784-1.797c-0.16-0.679-0.242-1.422-0.242-2.227c0-1.172,0.158-2.218,0.471-3.139
		c0.215-0.644,0.465-1.109,0.751-1.395c0.178-0.179,0.645-0.515,1.395-1.006c0.751-0.492,1.298-0.813,1.637-0.965
		c0.627-0.277,1.365-0.416,2.214-0.416c1.198,0,2.182,0.25,2.95,0.751c0.769,0.501,1.313,1.141,1.631,1.918
		c0.316,0.778,0.476,1.722,0.476,2.831c0,0.25-0.009,0.492-0.026,0.724c-0.225,0.072-0.563,0.152-1.021,0.241
		c-0.606,0.116-1.019,0.179-1.233,0.188c-0.67,0.053-1.556,0.085-2.655,0.094c-1.101,0.008-1.708,0.018-1.825,0.026
		s-0.245,0.014-0.389,0.014h-0.886c0.071,1.413,0.51,2.529,1.315,3.347c0.805,0.818,1.797,1.227,2.978,1.227
		c0.51,0,0.979-0.055,1.409-0.167c0.428-0.112,0.991-0.343,1.688-0.691L383.776,37.366z M380.584,31.799
		c0.036-1.417-0.156-2.411-0.577-2.981c-0.428-0.562-0.981-0.842-1.663-0.842c-0.697,0-1.273,0.294-1.729,0.883
		c-0.466,0.597-0.681,1.577-0.645,2.94c0.527,0.081,1.409,0.121,2.643,0.121C379.4,31.919,380.058,31.879,380.584,31.799z"/>
	<path fill="#FFFFFF" d="M401.02,38.437v0.994c-1.219-0.062-2.213-0.094-2.985-0.094c-0.888,0-1.658,0.032-2.313,0.094l-0.242-0.241
		c0.018-0.188,0.077-0.961,0.175-2.321l0.067-2.2V33.61c0-1.565-0.06-2.594-0.183-3.085c-0.119-0.491-0.368-0.887-0.744-1.188
		c-0.375-0.3-0.876-0.449-1.502-0.449c-0.627,0-1.145,0.15-1.556,0.449c-0.412,0.3-0.671,0.602-0.778,0.906
		c-0.063,0.178-0.09,0.893-0.08,2.142v2.251c0,0.652,0.022,1.451,0.066,2.396c0.01,0.42,0.044,0.697,0.107,0.831
		c0.044,0.098,0.102,0.169,0.172,0.214c0.107,0.071,0.317,0.139,0.627,0.201c0.105,0.019,0.479,0.054,1.12,0.107v1.046
		c-0.977-0.035-2.17-0.054-3.582-0.054c-1.637,0-2.907,0.019-3.81,0.054v-1.046c0.697,0,1.181-0.048,1.449-0.147
		c0.124-0.044,0.218-0.119,0.281-0.227c0.09-0.17,0.138-0.491,0.147-0.963l0.054-1.191c0.01-0.249,0.014-0.656,0.014-1.217v-1.752
		c0-0.793-0.023-1.757-0.067-2.89c-0.026-0.57-0.065-0.893-0.115-0.97c-0.05-0.076-0.128-0.131-0.235-0.167
		c-0.172-0.063-0.68-0.107-1.527-0.134v-1.046c1.627-0.277,2.696-0.483,3.206-0.617s1.087-0.349,1.729-0.644l0.363,0.161v2.163
		l2.441-1.961c0.295-0.117,0.544-0.194,0.743-0.234c0.203-0.041,0.48-0.061,0.839-0.061c0.957,0,1.675,0.107,2.154,0.323
		c0.477,0.216,0.882,0.519,1.213,0.909c0.332,0.391,0.563,0.799,0.698,1.225c0.134,0.427,0.201,1.092,0.201,1.999
		c0,1.022-0.01,1.672-0.027,1.952c-0.01,0.107-0.014,0.237-0.014,0.39l0.014,1.386c0.009,1.517,0.034,2.454,0.075,2.813
		c0.039,0.358,0.121,0.59,0.242,0.693c0.121,0.104,0.39,0.168,0.804,0.196C400.416,38.38,400.669,38.402,401.02,38.437z"/>
	<path fill="#FFFFFF" d="M402.73,35.206h1.074c0.044,1.001,0.09,1.631,0.134,1.891c0.402,0.492,0.845,0.856,1.328,1.093
		c0.482,0.237,1.036,0.355,1.663,0.355c0.842,0,1.484-0.201,1.931-0.604c0.448-0.402,0.672-0.891,0.672-1.464
		c0-0.375-0.073-0.687-0.223-0.933c-0.146-0.246-0.444-0.472-0.891-0.678c-0.35-0.126-1.018-0.295-2.007-0.509
		c-0.987-0.216-1.735-0.453-2.246-0.711c-0.51-0.26-0.908-0.646-1.193-1.161c-0.286-0.513-0.43-1.114-0.43-1.802
		c0-1.233,0.466-2.26,1.396-3.077c0.929-0.817,2.267-1.227,4.011-1.227c0.724,0,1.392,0.063,1.998,0.188
		c0.608,0.126,1.157,0.313,1.65,0.564l0.04,0.134c-0.054,0.313-0.094,0.631-0.121,0.953c-0.026,0.322-0.066,1.082-0.12,2.28
		l-1.047-0.014c-0.009-0.098-0.022-0.264-0.039-0.499c-0.027-0.404-0.082-0.795-0.162-1.173c-0.275-0.358-0.616-0.628-1.022-0.808
		c-0.407-0.18-0.881-0.27-1.425-0.27c-0.758,0-1.345,0.17-1.759,0.51c-0.415,0.341-0.623,0.748-0.623,1.222
		c0,0.484,0.094,0.843,0.282,1.075c0.188,0.233,0.466,0.408,0.832,0.523c0.365,0.117,1.044,0.266,2.033,0.45
		c0.986,0.184,1.651,0.338,1.99,0.462c0.492,0.189,0.886,0.426,1.181,0.712c0.295,0.286,0.521,0.643,0.677,1.067
		c0.157,0.425,0.235,0.894,0.235,1.403c0,1.333-0.515,2.458-1.551,3.37c-1.03,0.913-2.482,1.37-4.351,1.37
		c-0.627,0-1.235-0.056-1.825-0.168c-0.59-0.112-1.311-0.315-2.159-0.61l-0.147-0.201c0.071-0.689,0.117-1.175,0.134-1.462
		L402.73,35.206z"/>
	<path fill="#FFFFFF" d="M429.626,20.665v1.181c-0.908,0.026-1.448,0.06-1.619,0.101c-0.17,0.04-0.293,0.089-0.364,0.147
		c-0.073,0.058-0.122,0.132-0.149,0.222c-0.062,0.152-0.107,0.442-0.134,0.872c-0.018,0.232-0.03,0.67-0.04,1.314
		c-0.036,2.2-0.055,3.385-0.055,3.555v5.406l0.041,2.455c0,0.921,0.044,1.521,0.134,1.798c0.036,0.125,0.098,0.221,0.183,0.289
		c0.086,0.067,0.22,0.121,0.406,0.161c0.184,0.041,0.717,0.069,1.598,0.087v1.18c-1.458-0.062-3.015-0.094-4.669-0.094
		c-1.438,0-2.722,0.032-3.85,0.094v-1.18c0.931-0.036,1.467-0.067,1.61-0.094c0.188-0.036,0.315-0.086,0.382-0.148
		c0.068-0.063,0.11-0.134,0.128-0.214c0.027-0.107,0.063-0.528,0.107-1.261c0.071-1.074,0.107-2.066,0.107-2.978v-5.607
		c0-1.779-0.01-2.924-0.027-3.434c-0.044-1.136-0.098-1.846-0.16-2.133c-0.027-0.116-0.069-0.206-0.128-0.268
		s-0.165-0.114-0.322-0.154c-0.156-0.041-0.721-0.079-1.697-0.114v-1.181c1.128,0.062,2.42,0.094,3.877,0.094
		C426.622,20.759,428.168,20.727,429.626,20.665z"/>
	<path fill="#FFFFFF" d="M446.454,38.437v0.994c-1.218-0.062-2.212-0.094-2.985-0.094c-0.887,0-1.657,0.032-2.313,0.094
		l-0.242-0.241c0.019-0.188,0.077-0.961,0.176-2.321l0.066-2.2V33.61c0-1.565-0.06-2.594-0.183-3.085
		c-0.118-0.491-0.367-0.887-0.743-1.188c-0.375-0.3-0.876-0.449-1.502-0.449s-1.145,0.15-1.557,0.449
		c-0.412,0.3-0.67,0.602-0.777,0.906c-0.063,0.178-0.09,0.893-0.08,2.142v2.251c0,0.652,0.022,1.451,0.066,2.396
		c0.009,0.42,0.045,0.697,0.107,0.831c0.044,0.098,0.102,0.169,0.173,0.214c0.106,0.071,0.316,0.139,0.627,0.201
		c0.105,0.019,0.479,0.054,1.118,0.107v1.046c-0.976-0.035-2.17-0.054-3.581-0.054c-1.637,0-2.907,0.019-3.81,0.054v-1.046
		c0.698,0,1.181-0.048,1.448-0.147c0.124-0.044,0.218-0.119,0.282-0.227c0.089-0.17,0.138-0.491,0.147-0.963l0.054-1.191
		c0.009-0.249,0.014-0.656,0.014-1.217v-1.752c0-0.793-0.023-1.757-0.067-2.89c-0.027-0.57-0.065-0.893-0.115-0.97
		c-0.049-0.076-0.129-0.131-0.236-0.167c-0.172-0.063-0.68-0.107-1.526-0.134v-1.046c1.627-0.277,2.695-0.483,3.205-0.617
		c0.511-0.134,1.087-0.349,1.731-0.644l0.362,0.161v2.163l2.44-1.961c0.295-0.117,0.544-0.194,0.743-0.234
		c0.204-0.041,0.482-0.061,0.84-0.061c0.956,0,1.675,0.107,2.154,0.323c0.477,0.216,0.881,0.519,1.213,0.909
		c0.331,0.391,0.563,0.799,0.697,1.225c0.135,0.427,0.201,1.092,0.201,1.999c0,1.022-0.009,1.672-0.027,1.952
		c-0.009,0.107-0.013,0.237-0.013,0.39l0.013,1.386c0.011,1.517,0.035,2.454,0.075,2.813c0.041,0.358,0.121,0.59,0.243,0.693
		c0.121,0.104,0.389,0.168,0.803,0.196C445.851,38.38,446.104,38.402,446.454,38.437z"/>
	<path fill="#FFFFFF" d="M448.165,35.206h1.072c0.044,1.001,0.09,1.631,0.134,1.891c0.402,0.492,0.846,0.856,1.328,1.093
		c0.483,0.237,1.037,0.355,1.663,0.355c0.842,0,1.485-0.201,1.933-0.604c0.446-0.402,0.671-0.891,0.671-1.464
		c0-0.375-0.073-0.687-0.223-0.933c-0.146-0.246-0.445-0.472-0.892-0.678c-0.348-0.126-1.018-0.295-2.006-0.509
		c-0.986-0.216-1.736-0.453-2.246-0.711c-0.51-0.26-0.908-0.646-1.194-1.161c-0.285-0.513-0.429-1.114-0.429-1.802
		c0-1.233,0.466-2.26,1.395-3.077c0.93-0.817,2.267-1.227,4.012-1.227c0.724,0,1.391,0.063,1.999,0.188
		c0.606,0.126,1.157,0.313,1.649,0.564l0.04,0.134c-0.054,0.313-0.095,0.631-0.12,0.953c-0.027,0.322-0.068,1.082-0.121,2.28
		l-1.046-0.014c-0.011-0.098-0.024-0.264-0.041-0.499c-0.027-0.404-0.08-0.795-0.16-1.173c-0.276-0.358-0.617-0.628-1.024-0.808
		c-0.405-0.18-0.879-0.27-1.423-0.27c-0.76,0-1.346,0.17-1.76,0.51c-0.416,0.341-0.623,0.748-0.623,1.222
		c0,0.484,0.094,0.843,0.282,1.075c0.188,0.233,0.465,0.408,0.831,0.523c0.366,0.117,1.045,0.266,2.033,0.45
		c0.986,0.184,1.652,0.338,1.991,0.462c0.493,0.189,0.885,0.426,1.181,0.712c0.295,0.286,0.521,0.643,0.676,1.067
		c0.158,0.425,0.236,0.894,0.236,1.403c0,1.333-0.516,2.458-1.55,3.37c-1.031,0.913-2.483,1.37-4.353,1.37
		c-0.627,0-1.234-0.056-1.824-0.168c-0.591-0.112-1.312-0.315-2.16-0.61l-0.146-0.201c0.07-0.689,0.116-1.175,0.133-1.462
		L448.165,35.206z"/>
	<path fill="#FFFFFF" d="M459.266,29.21v-0.604l1.207-0.756c0.197-0.124,0.385-0.255,0.563-0.397v-1.797
		c0-0.644-0.036-1.44-0.107-2.388c0.867-0.286,1.432-0.478,1.69-0.577c0.044-0.018,0.613-0.281,1.704-0.791l0.348,0.268
		l-0.134,1.396l-0.095,1.542l-0.119,2.348h0.441c1.19,0,2.089-0.045,2.697-0.134l-0.229,1.811c-0.107,0.019-0.206,0.027-0.295,0.027
		l-1.315-0.027h-1.3v4.48c0,1.377,0.012,2.191,0.039,2.441c0.037,0.42,0.186,0.749,0.448,0.986c0.266,0.236,0.647,0.355,1.148,0.355
		c0.305,0.009,0.549,0.002,0.729-0.02c0.185-0.022,0.421-0.065,0.705-0.128l0.215,0.543l-0.484,0.485
		c-0.393,0.403-0.737,0.758-1.035,1.063c-0.348,0.152-0.661,0.253-0.933,0.303c-0.274,0.049-0.554,0.074-0.84,0.074
		c-1.04,0-1.859-0.266-2.454-0.799c-0.597-0.533-0.893-1.198-0.893-1.995l0.066-4.433V29.17h-0.363
		C460.182,29.17,459.712,29.183,459.266,29.21z"/>
	<path fill="#FFFFFF" d="M468.448,39.431v-0.993c1.002-0.072,1.573-0.149,1.717-0.234c0.145-0.085,0.231-0.245,0.269-0.477
		c0.091-0.493,0.134-1.759,0.134-3.801c0-2.804-0.04-4.397-0.12-4.782c-0.037-0.179-0.094-0.296-0.175-0.35
		c-0.178-0.116-0.788-0.179-1.824-0.188v-1.019c1.352-0.141,2.371-0.292,3.058-0.452c0.688-0.159,1.439-0.402,2.254-0.729
		l0.322,0.174c-0.107,1.395-0.161,2.705-0.161,3.931v4.561c0,1.556,0.037,2.477,0.107,2.763c0.037,0.161,0.107,0.269,0.215,0.322
		c0.241,0.116,0.828,0.192,1.758,0.228v1.046c-1.271-0.035-2.653-0.054-4.146-0.054C470.567,39.377,469.432,39.396,468.448,39.431z
		 M472.13,20.008c0.57,0,1.056,0.201,1.45,0.604c0.396,0.403,0.596,0.885,0.596,1.449c0,0.572-0.199,1.059-0.596,1.462
		c-0.395,0.402-0.88,0.604-1.45,0.604c-0.563,0-1.043-0.201-1.443-0.604c-0.4-0.403-0.602-0.89-0.602-1.462
		c0-0.564,0.197-1.046,0.594-1.449C471.075,20.209,471.561,20.008,472.13,20.008z"/>
	<path fill="#FFFFFF" d="M477.012,29.21v-0.604l1.208-0.756c0.197-0.124,0.385-0.255,0.563-0.397v-1.797
		c0-0.644-0.036-1.44-0.107-2.388c0.869-0.286,1.432-0.478,1.69-0.577c0.045-0.018,0.613-0.281,1.704-0.791l0.349,0.268
		l-0.134,1.396l-0.094,1.542l-0.121,2.348h0.443c1.189,0,2.088-0.045,2.695-0.134l-0.228,1.811
		c-0.107,0.019-0.205,0.027-0.295,0.027l-1.315-0.027h-1.301v4.48c0,1.377,0.014,2.191,0.041,2.441
		c0.035,0.42,0.186,0.749,0.448,0.986c0.264,0.236,0.647,0.355,1.146,0.355c0.306,0.009,0.549,0.002,0.731-0.02
		c0.184-0.022,0.419-0.065,0.705-0.128l0.214,0.543l-0.484,0.485c-0.394,0.403-0.738,0.758-1.035,1.063
		c-0.349,0.152-0.661,0.253-0.934,0.303c-0.273,0.049-0.554,0.074-0.84,0.074c-1.039,0-1.857-0.266-2.454-0.799
		c-0.596-0.533-0.893-1.198-0.893-1.995l0.066-4.433V29.17h-0.361C477.929,29.17,477.458,29.183,477.012,29.21z"/>
	<path fill="#FFFFFF" d="M485.98,28.687v-1.02c0.771-0.045,1.547-0.149,2.326-0.312c0.78-0.162,1.78-0.452,2.999-0.868l0.188,0.147
		c-0.134,1.771-0.201,3.407-0.201,4.91v1.502c0,1.28,0.031,2.133,0.094,2.562c0.089,0.564,0.303,0.988,0.643,1.275
		c0.339,0.286,0.792,0.429,1.353,0.429c0.643,0,1.183-0.168,1.621-0.507c0.438-0.338,0.742-0.686,0.915-1.043
		c0.108-0.231,0.164-0.713,0.164-1.444V32.03l-0.026-1.898c0-0.615-0.041-0.986-0.121-1.111c-0.044-0.08-0.135-0.143-0.269-0.187
		c-0.134-0.045-0.681-0.094-1.637-0.147v-1.02c1.386-0.181,2.331-0.326,2.831-0.434c0.5-0.108,1.351-0.358,2.549-0.747l0.254,0.147
		l-0.146,2.468c-0.071,1.752-0.107,2.732-0.107,2.938v2.75c0,1.637,0.04,2.647,0.121,3.032c0.036,0.161,0.103,0.272,0.201,0.335
		c0.17,0.089,0.72,0.156,1.649,0.201v1.073l-2.764-0.067l-2.535,0.067l-0.094-0.107l0.081-1.035c0.009-0.17,0.013-0.516,0.013-1.035
		c-0.349,0.278-0.653,0.533-0.914,0.766l-1.518,1.439c-0.619,0.223-1.239,0.335-1.868,0.335c-1.21,0-2.158-0.331-2.848-0.992
		c-0.69-0.661-1.035-1.541-1.035-2.639c0-0.134,0.018-0.631,0.05-1.488c0.012-0.455,0.018-1.045,0.018-1.768l-0.027-2.827
		c0-0.518-0.032-0.839-0.101-0.964c-0.066-0.126-0.177-0.22-0.329-0.282C487.358,28.772,486.848,28.722,485.98,28.687z"/>
	<path fill="#FFFFFF" d="M502.394,29.21v-0.604l1.207-0.756c0.197-0.124,0.385-0.255,0.563-0.397v-1.797
		c0-0.644-0.037-1.44-0.107-2.388c0.868-0.286,1.432-0.478,1.69-0.577c0.044-0.018,0.612-0.281,1.703-0.791l0.349,0.268
		l-0.134,1.396l-0.094,1.542l-0.121,2.348h0.443c1.189,0,2.089-0.045,2.695-0.134l-0.228,1.811
		c-0.107,0.019-0.205,0.027-0.295,0.027l-1.314-0.027h-1.302v4.48c0,1.377,0.014,2.191,0.041,2.441
		c0.036,0.42,0.186,0.749,0.448,0.986c0.264,0.236,0.647,0.355,1.147,0.355c0.305,0.009,0.548,0.002,0.73-0.02
		c0.184-0.022,0.419-0.065,0.705-0.128l0.215,0.543l-0.485,0.485c-0.393,0.403-0.738,0.758-1.035,1.063
		c-0.349,0.152-0.661,0.253-0.934,0.303c-0.272,0.049-0.554,0.074-0.839,0.074c-1.04,0-1.858-0.266-2.455-0.799
		c-0.595-0.533-0.893-1.198-0.893-1.995l0.067-4.433V29.17h-0.362C503.31,29.17,502.84,29.183,502.394,29.21z"/>
	<path fill="#FFFFFF" d="M523.097,37.366l-0.59,1.314c-0.734,0.448-1.489,0.778-2.268,0.993c-0.58,0.152-1.243,0.228-1.985,0.228
		c-0.885,0-1.665-0.103-2.34-0.309c-0.676-0.206-1.253-0.488-1.731-0.845c-0.478-0.357-0.897-0.796-1.261-1.314
		c-0.361-0.519-0.623-1.118-0.784-1.797s-0.241-1.422-0.241-2.227c0-1.172,0.156-2.218,0.47-3.139
		c0.215-0.644,0.465-1.109,0.751-1.395c0.178-0.179,0.644-0.515,1.395-1.006c0.752-0.492,1.297-0.813,1.638-0.965
		c0.626-0.277,1.363-0.416,2.212-0.416c1.198,0,2.183,0.25,2.951,0.751c0.769,0.501,1.313,1.141,1.631,1.918
		c0.316,0.778,0.476,1.722,0.476,2.831c0,0.25-0.01,0.492-0.027,0.724c-0.224,0.072-0.563,0.152-1.019,0.241
		c-0.607,0.116-1.02,0.179-1.234,0.188c-0.671,0.053-1.556,0.085-2.656,0.094c-1.1,0.008-1.707,0.018-1.824,0.026
		s-0.245,0.014-0.39,0.014h-0.885c0.07,1.413,0.51,2.529,1.314,3.347c0.806,0.818,1.798,1.227,2.979,1.227
		c0.51,0,0.979-0.055,1.408-0.167c0.429-0.112,0.993-0.343,1.69-0.691L523.097,37.366z M519.905,31.799
		c0.035-1.417-0.158-2.411-0.578-2.981c-0.429-0.562-0.982-0.842-1.663-0.842c-0.697,0-1.274,0.294-1.729,0.883
		c-0.467,0.597-0.682,1.577-0.645,2.94c0.527,0.081,1.408,0.121,2.644,0.121C518.721,31.919,519.377,31.879,519.905,31.799z"/>
	<path fill="#FFFFFF" d="M160.035,56.958v-0.874l3.425,0.073l1.423-0.025l1.423-0.035l0.39-0.013v0.874
		c-0.759,0-1.24,0.066-1.444,0.2c-0.105,0.063-0.175,0.186-0.21,0.369c-0.099,0.436-0.147,1.395-0.147,2.878v2.443l0.01,1.233
		c0,1.286,0.014,2.081,0.042,2.383c0.063,0.659,0.228,1.193,0.496,1.596s0.676,0.732,1.228,0.982
		c0.551,0.248,1.252,0.371,2.103,0.371c0.977,0,1.755-0.165,2.334-0.498c0.58-0.334,0.993-0.77,1.239-1.304
		c0.246-0.532,0.369-1.548,0.369-3.045v-2.15c0-1.855-0.003-2.986-0.01-3.393c-0.021-0.887-0.07-1.42-0.148-1.604
		c-0.048-0.111-0.13-0.196-0.242-0.253c-0.231-0.118-0.738-0.189-1.518-0.21v-0.874c1.271,0.048,2.027,0.073,2.266,0.073
		c0.063,0,0.158-0.005,0.284-0.011l2.34-0.063v0.874c-0.653,0-1.064,0.052-1.233,0.158c-0.084,0.057-0.152,0.162-0.206,0.321
		c-0.051,0.158-0.104,0.869-0.152,2.133c-0.049,1.267-0.074,2.263-0.074,2.995v2.476c0,0.634-0.046,1.286-0.137,1.96
		c-0.091,0.676-0.276,1.252-0.553,1.729c-0.278,0.478-0.67,0.911-1.176,1.297c-0.505,0.386-1.106,0.68-1.802,0.874
		c-0.695,0.195-1.5,0.296-2.414,0.296c-1.068,0-2.065-0.144-2.993-0.434c-0.674-0.211-1.227-0.492-1.655-0.847
		c-0.428-0.356-0.755-0.751-0.98-1.193c-0.225-0.438-0.362-0.861-0.411-1.268c-0.036-0.253-0.053-0.935-0.053-2.046l0.011-2.023
		v-2.678c0-0.984-0.017-1.868-0.053-2.654c-0.021-0.311-0.064-0.534-0.127-0.676c-0.036-0.077-0.124-0.169-0.265-0.273
		L160.035,56.958z"/>
	<path fill="#FFFFFF" d="M177.078,69.932c0.829-0.042,1.303-0.08,1.423-0.115c0.078-0.029,0.142-0.075,0.195-0.138
		c0.052-0.063,0.096-0.193,0.131-0.39c0.042-0.267,0.091-0.913,0.148-1.939c0.028-0.584,0.042-1.343,0.042-2.275v-3.385
		l-0.053-3.065c-0.007-0.513-0.027-0.849-0.063-1.003c-0.034-0.154-0.085-0.27-0.152-0.343c-0.066-0.072-0.176-0.131-0.331-0.173
		c-0.153-0.042-0.601-0.088-1.341-0.138v-0.884c0.892,0.048,1.549,0.073,1.971,0.073l1.528-0.036l0.97-0.037
		c1.448,1.89,3.2,4.066,5.259,6.533c1.482,1.777,2.713,3.168,3.689,4.174v-2.435c0-3.78-0.042-6.004-0.127-6.671
		c-0.027-0.261-0.091-0.43-0.189-0.507c-0.162-0.125-0.71-0.196-1.644-0.211v-0.884c0.857,0.048,1.644,0.073,2.361,0.073
		c0.695,0,1.591-0.025,2.688-0.073v0.884c-0.857,0.021-1.366,0.086-1.528,0.19c-0.057,0.035-0.095,0.087-0.116,0.158
		c-0.105,0.353-0.174,1.153-0.206,2.408c-0.031,1.254-0.047,2.18-0.047,2.776c0,4.673,0.046,7.508,0.137,8.507l-0.137,0.094
		c-0.59-0.099-1.191-0.188-1.803-0.273c-2.27-2.536-5.487-6.346-9.654-11.424v5.246c0,1.091,0.025,2.226,0.073,3.406
		c0.028,0.813,0.07,1.31,0.127,1.484c0.027,0.084,0.076,0.152,0.143,0.207c0.066,0.054,0.184,0.087,0.353,0.11
		c0.458,0.057,0.791,0.085,1.001,0.085c0.042,0,0.112-0.004,0.211-0.012v0.854c-1.336-0.022-2.095-0.031-2.278-0.031
		c-0.684,0-1.611,0.023-2.781,0.073V69.932z"/>
	<path fill="#FFFFFF" d="M201.941,56.084v0.926c-0.714,0.021-1.139,0.048-1.273,0.079c-0.133,0.031-0.229,0.071-0.286,0.117
		c-0.057,0.046-0.095,0.104-0.116,0.173c-0.05,0.121-0.085,0.349-0.106,0.687c-0.015,0.181-0.025,0.525-0.032,1.032
		c-0.027,1.729-0.042,2.658-0.042,2.792v4.248l0.032,1.927c0,0.727,0.035,1.197,0.106,1.414c0.028,0.099,0.076,0.173,0.143,0.228
		s0.173,0.096,0.318,0.127c0.145,0.029,0.563,0.053,1.257,0.069v0.926c-1.145-0.05-2.368-0.073-3.668-0.073
		c-1.131,0-2.14,0.023-3.025,0.073v-0.926c0.731-0.029,1.153-0.055,1.265-0.075c0.148-0.029,0.248-0.066,0.3-0.117
		c0.053-0.048,0.086-0.104,0.1-0.169c0.022-0.085,0.049-0.415,0.084-0.988c0.056-0.845,0.084-1.625,0.084-2.342v-4.404
		c0-1.397-0.006-2.299-0.021-2.699c-0.035-0.893-0.078-1.451-0.126-1.677c-0.022-0.09-0.055-0.16-0.101-0.21
		c-0.045-0.048-0.129-0.088-0.252-0.121c-0.123-0.031-0.567-0.061-1.333-0.09v-0.926c0.885,0.048,1.901,0.073,3.046,0.073
		C199.581,56.157,200.796,56.132,201.941,56.084z"/>
	<path fill="#FFFFFF" d="M210.457,70.901c-0.597-1.475-1.17-2.874-1.718-4.202l-1.496-3.57c-1.174-2.801-1.896-4.47-2.166-5.008
		c-0.271-0.536-0.476-0.843-0.617-0.922c-0.21-0.11-0.646-0.175-1.307-0.189v-0.926c1.686,0.048,2.712,0.073,3.078,0.073
		l3.783-0.073v0.926c-0.59,0.008-1.019,0.044-1.286,0.106c-0.154,0.035-0.262,0.085-0.321,0.152c-0.061,0.066-0.09,0.152-0.09,0.259
		c0,0.21,0.231,0.875,0.696,2c0.267,0.646,0.409,0.994,0.426,1.047c0.018,0.054,0.04,0.118,0.069,0.195l2.663,6.499l2.342-5.794
		c0.056-0.134,0.305-0.797,0.75-1.989c0.316-0.843,0.509-1.408,0.58-1.695c0.014-0.086,0.021-0.169,0.021-0.253
		c0-0.119-0.019-0.208-0.058-0.269c-0.039-0.061-0.09-0.104-0.152-0.132c-0.05-0.021-0.176-0.037-0.38-0.052
		c-0.457-0.042-0.843-0.067-1.159-0.075v-0.926l2.677,0.073l2.277-0.073v0.926c-0.682,0.064-1.08,0.138-1.192,0.221
		c-0.189,0.148-0.586,0.945-1.191,2.393l-0.748,1.747l-1.423,3.392c-1.208,2.895-2.027,4.94-2.456,6.14H210.457z"/>
	<path fill="#FFFFFF" d="M220.711,70.828v-0.569c0.422-0.196,0.767-0.4,1.033-0.611c0.042-0.294,0.078-0.773,0.105-1.433
		c0.056-1.209,0.084-2.088,0.084-2.636v-4.742c0-0.184-0.01-0.868-0.031-2.057c-0.022-0.792-0.071-1.278-0.148-1.453
		c-0.036-0.071-0.088-0.123-0.159-0.159c-0.188-0.083-0.695-0.147-1.517-0.189v-0.812l2.445-0.019
		c0.485-0.002,0.949-0.002,1.391-0.002c0.962,0,2.035-0.011,3.216-0.031l2.139-0.055c0.252,0,0.766,0.015,1.54,0.044
		c0.07,0,0.185,0.021,0.345,0.063l0.077,0.138l-0.204,1.517c-0.007,0.106-0.042,0.612-0.103,1.518h-0.825
		c-0.012-0.827-0.046-1.339-0.092-1.528c-0.03-0.098-0.073-0.167-0.126-0.211c-0.092-0.063-0.372-0.118-0.843-0.169
		c-0.694-0.077-1.375-0.114-2.039-0.114c-0.625,0-1.265,0.024-1.917,0.073c-0.098,0.801-0.145,1.816-0.145,3.051v2.177
		c0.474,0.036,0.973,0.053,1.49,0.053c0.162,0,0.744-0.015,1.748-0.042c0.376-0.006,0.598-0.031,0.667-0.073
		c0.065-0.044,0.115-0.116,0.153-0.221c0.084-0.27,0.13-0.713,0.146-1.339h0.854l-0.053,2.319l0.053,2.307h-0.854
		c0.007-0.815-0.047-1.316-0.162-1.506c-0.084-0.143-0.238-0.229-0.456-0.266c-0.491-0.077-1.119-0.114-1.886-0.114
		c-0.685,0-1.257,0.025-1.701,0.073v4.419c0,0.494,0.009,0.92,0.03,1.272c0.567,0.05,1.242,0.072,2.02,0.072
		c0.759,0,1.457-0.022,2.1-0.072c0.64-0.049,1.035-0.119,1.185-0.211c0.046-0.027,0.092-0.092,0.133-0.188
		c0.127-0.338,0.261-0.979,0.403-1.921h0.862c-0.153,1.391-0.229,2.536-0.229,3.437l-0.138,0.138
		c-0.453,0.046-1.088,0.073-1.921,0.073l-1.693-0.038c-1.675-0.022-2.827-0.035-3.459-0.035
		C224.064,70.755,222.89,70.778,220.711,70.828z"/>
	<path fill="#FFFFFF" d="M233.465,56.947v-0.863c0.161,0,0.724,0.015,1.686,0.048c0.471,0.017,1.138,0.025,2.002,0.025
		c0.738,0,1.37-0.015,1.898-0.049c0.872-0.037,1.59-0.058,2.162-0.058c1.101,0,1.927,0.081,2.475,0.237
		c0.549,0.158,1.016,0.488,1.403,0.988c0.386,0.499,0.579,1.107,0.579,1.825c0,0.851-0.264,1.627-0.79,2.323
		c-0.528,0.696-1.339,1.247-2.436,1.655c0.176,0.315,0.376,0.635,0.601,0.962c0.225,0.327,0.357,0.527,0.396,0.597
		c0.039,0.068,0.079,0.138,0.121,0.198l1.633,2.439c0.437,0.646,0.673,0.997,0.707,1.045c0.527,0.696,0.851,1.109,0.97,1.234
		c0.119,0.125,0.236,0.211,0.346,0.261c0.114,0.05,0.336,0.077,0.666,0.086v0.926c-1.083-0.027-1.865-0.042-2.352-0.042
		c-0.561,0-1.119,0.015-1.675,0.042c-0.034-0.154-0.119-0.356-0.253-0.601l-2.255-3.721c-0.646-1.067-1.194-1.908-1.644-2.52
		c-0.225-0.309-0.442-0.542-0.653-0.696l0.115-0.346c0.843,0.026,1.479-0.059,1.908-0.259c0.43-0.2,0.79-0.562,1.085-1.078
		c0.295-0.518,0.444-1.095,0.444-1.737c0-0.646-0.155-1.187-0.464-1.614c-0.311-0.43-0.693-0.729-1.149-0.898
		c-0.295-0.104-0.823-0.159-1.582-0.159c-0.337,0-0.67,0.029-1.002,0.086c-0.019,0.252-0.042,0.821-0.062,1.706
		c-0.042,1.991-0.064,3.319-0.064,3.989c0,1.053,0.011,2.173,0.032,3.354c0.029,1.449,0.05,2.271,0.063,2.469
		c0.021,0.393,0.06,0.651,0.115,0.77c0.029,0.057,0.075,0.108,0.138,0.152c0.063,0.046,0.165,0.086,0.307,0.11
		c0.141,0.029,0.548,0.051,1.223,0.067v0.926c-1.204-0.05-2.418-0.073-3.649-0.073c-1.096,0-2.11,0.023-3.044,0.073v-0.926
		c0.801-0.029,1.274-0.069,1.423-0.117c0.084-0.022,0.146-0.056,0.185-0.106c0.038-0.05,0.069-0.147,0.087-0.294
		c0.05-0.277,0.084-0.69,0.107-1.247l0.084-3.078v-3.914l-0.054-2.226c-0.013-0.88-0.055-1.405-0.126-1.583
		c-0.035-0.077-0.087-0.138-0.158-0.179C234.849,57.074,234.331,57.004,233.465,56.947z"/>
	<path fill="#FFFFFF" d="M259.053,59.93h-0.885c-0.013-0.815-0.048-1.392-0.103-1.729c-0.219-0.309-0.597-0.581-1.132-0.821
		c-0.537-0.238-1.139-0.358-1.804-0.358c-0.954,0-1.691,0.241-2.215,0.724c-0.523,0.481-0.784,1.047-0.784,1.695
		c0.008,0.463,0.084,0.84,0.232,1.128c0.147,0.29,0.357,0.518,0.63,0.687c0.274,0.171,0.679,0.323,1.211,0.465
		c0.406,0.083,0.973,0.189,1.7,0.317c0.726,0.127,1.197,0.215,1.416,0.263c0.569,0.147,1.027,0.325,1.379,0.531
		c0.352,0.209,0.629,0.448,0.835,0.72c0.208,0.269,0.377,0.611,0.512,1.021c0.133,0.411,0.199,0.872,0.199,1.387
		c0,0.899-0.186,1.689-0.559,2.372c-0.281,0.513-0.672,0.981-1.169,1.407c-0.499,0.426-1.013,0.742-1.539,0.953
		c-0.844,0.338-1.855,0.507-3.036,0.507c-0.864,0-1.635-0.081-2.31-0.242c-0.675-0.162-1.414-0.439-2.222-0.834
		c0.218-0.801,0.33-2.019,0.337-3.656h0.885c-0.014,0.509,0.025,1.137,0.115,1.892c0.269,0.438,0.725,0.82,1.372,1.151
		c0.646,0.332,1.352,0.496,2.118,0.496c0.666,0,1.263-0.116,1.786-0.353c0.522-0.235,0.902-0.561,1.138-0.976
		c0.235-0.415,0.354-0.887,0.354-1.416c0-0.442-0.084-0.821-0.25-1.139c-0.165-0.317-0.423-0.571-0.773-0.761
		c-0.351-0.19-0.97-0.386-1.855-0.591c-1.272-0.267-2.108-0.461-2.509-0.582c-0.604-0.181-1.09-0.443-1.46-0.79
		c-0.368-0.344-0.644-0.759-0.826-1.247c-0.183-0.49-0.276-1.016-0.276-1.576c0-0.789,0.167-1.513,0.496-2.178
		c0.33-0.663,0.767-1.179,1.308-1.543c0.54-0.367,1.151-0.628,1.833-0.786c0.683-0.159,1.381-0.238,2.097-0.238
		c0.746,0,1.468,0.067,2.167,0.2c0.7,0.134,1.306,0.328,1.819,0.578l0.084,0.252c-0.099,0.457-0.17,0.903-0.216,1.341
		C259.108,58.639,259.076,59.216,259.053,59.93z"/>
	<path fill="#FFFFFF" d="M268.655,56.084v0.926c-0.714,0.021-1.137,0.048-1.272,0.079c-0.134,0.031-0.23,0.071-0.286,0.117
		c-0.057,0.046-0.096,0.104-0.117,0.173c-0.05,0.121-0.084,0.349-0.107,0.687c-0.014,0.181-0.023,0.525-0.03,1.032
		c-0.029,1.729-0.043,2.658-0.043,2.792v4.248l0.031,1.927c0,0.727,0.037,1.197,0.107,1.414c0.028,0.099,0.074,0.173,0.142,0.228
		c0.069,0.055,0.174,0.096,0.318,0.127c0.145,0.029,0.565,0.053,1.256,0.069v0.926c-1.146-0.05-2.368-0.073-3.667-0.073
		c-1.131,0-2.139,0.023-3.024,0.073v-0.926c0.73-0.029,1.151-0.055,1.265-0.075c0.145-0.029,0.247-0.066,0.298-0.117
		c0.054-0.048,0.086-0.104,0.1-0.169c0.023-0.085,0.05-0.415,0.084-0.988c0.057-0.845,0.084-1.625,0.084-2.342v-4.404
		c0-1.397-0.006-2.299-0.02-2.699c-0.036-0.893-0.078-1.451-0.126-1.677c-0.023-0.09-0.055-0.16-0.101-0.21
		c-0.047-0.048-0.13-0.088-0.253-0.121c-0.123-0.031-0.567-0.061-1.332-0.09v-0.926c0.885,0.048,1.899,0.073,3.045,0.073
		C266.295,56.157,267.51,56.132,268.655,56.084z"/>
	<path fill="#FFFFFF" d="M273.147,70.828v-0.865c0.843-0.027,1.343-0.084,1.5-0.169c0.159-0.084,0.266-0.224,0.322-0.422
		c0.076-0.3,0.117-1.211,0.117-2.728V60.33c0-1.721-0.011-2.685-0.033-2.887h-1.508c-0.759,0-1.425,0.023-2.001,0.073
		c-0.233,0.021-0.366,0.048-0.401,0.083c-0.048,0.044-0.091,0.165-0.127,0.369c-0.089,0.492-0.144,1.045-0.156,1.656h-0.874
		c-0.029-1.441-0.047-2.252-0.054-2.436c-0.021-0.309-0.055-0.643-0.105-1.001l0.094-0.104c0.332,0.035,0.682,0.059,1.054,0.073
		c0.604,0.021,1.764,0.031,3.486,0.031h4.254c1.771,0,2.952-0.011,3.548-0.031c0.324-0.015,0.649-0.038,0.979-0.073l0.107,0.104
		c-0.064,0.429-0.103,0.805-0.117,1.128c-0.007,0.057-0.021,0.826-0.042,2.309h-0.876c-0.014-0.549-0.06-1.072-0.137-1.57
		c-0.042-0.255-0.087-0.404-0.136-0.455c-0.042-0.035-0.155-0.059-0.337-0.072c-0.577-0.057-1.268-0.084-2.077-0.084h-1.506
		c-0.023,0.246-0.033,1.208-0.033,2.887v6.314c0,1.517,0.039,2.43,0.118,2.74c0.047,0.184,0.153,0.317,0.314,0.404
		c0.163,0.09,0.665,0.146,1.508,0.174v0.865c-1.361-0.064-2.508-0.096-3.441-0.096C275.591,70.732,274.445,70.764,273.147,70.828z"
		/>
	<path fill="#FFFFFF" d="M292.25,63.068l1.323-2.146c0.224-0.386,0.892-1.56,1.999-3.524c0.387-0.674,0.628-1.111,0.727-1.313h1.668
		v0.474c-0.852,1.145-1.771,2.491-2.757,4.037c-0.985,1.545-1.595,2.54-1.826,2.982c-0.155,0.302-0.257,0.564-0.308,0.79
		c-0.034,0.163-0.051,0.426-0.051,0.79v1.781c0,0.893,0.021,1.543,0.066,1.95c0.046,0.406,0.103,0.652,0.163,0.736
		c0.065,0.085,0.169,0.149,0.318,0.191c0.146,0.042,0.61,0.069,1.392,0.086v0.926c-1.342-0.05-2.551-0.073-3.632-0.073
		c-1.052,0-2.119,0.023-3.198,0.073v-0.926c0.801-0.029,1.269-0.063,1.407-0.096c0.136-0.036,0.231-0.09,0.284-0.159
		c0.053-0.07,0.09-0.281,0.11-0.632c0.035-0.801,0.054-1.482,0.054-2.046v-2.002c0-0.162-0.134-0.496-0.402-1.001
		c-0.659-1.207-1.366-2.4-2.118-3.572c-0.611-0.955-1.181-1.723-1.707-2.298c-0.352-0.38-0.602-0.607-0.748-0.687
		c-0.092-0.042-0.403-0.063-0.927-0.063v-0.79l2.232-0.442c0.377-0.086,0.769-0.18,1.169-0.286c0.427,0.24,0.739,0.453,0.937,0.639
		c0.196,0.186,0.466,0.536,0.811,1.049c0.511,0.759,1.021,1.633,1.527,2.623C291.584,61.729,292.081,62.705,292.25,63.068z"/>
	<path fill="#FFFFFF" d="M303.733,67.835c0-0.871,0.146-1.778,0.437-2.719c0.292-0.943,0.605-1.621,0.942-2.036
		c0.212-0.258,0.585-0.603,1.123-1.027c0.537-0.424,1.128-0.776,1.771-1.054s1.327-0.415,2.052-0.415
		c0.604,0,1.155,0.09,1.653,0.273c0.499,0.184,0.876,0.419,1.129,0.711s0.438,0.643,0.558,1.049
		c0.118,0.407,0.178,0.854,0.178,1.339c0,0.92-0.15,1.84-0.457,2.755c-0.306,0.918-0.658,1.619-1.061,2.104
		c-0.287,0.336-0.737,0.711-1.353,1.12c-0.615,0.415-1.206,0.724-1.771,0.938c-0.565,0.215-1.203,0.323-1.913,0.323
		c-0.837,0-1.498-0.148-1.987-0.442c-0.488-0.296-0.827-0.7-1.018-1.218C303.827,69.02,303.733,68.453,303.733,67.835z
		 M306.221,67.752c0,0.861,0.163,1.48,0.488,1.854c0.327,0.371,0.789,0.559,1.386,0.559c0.402,0,0.748-0.099,1.039-0.29
		c0.291-0.194,0.56-0.507,0.801-0.938c0.244-0.434,0.466-1.028,0.67-1.787c0.295-1.109,0.441-2.171,0.441-3.183
		c0-0.857-0.169-1.479-0.51-1.86c-0.341-0.384-0.785-0.575-1.334-0.575c-0.561,0-1.043,0.21-1.444,0.628
		c-0.399,0.419-0.757,1.213-1.069,2.388C306.375,65.721,306.221,66.786,306.221,67.752z"/>
	<path fill="#FFFFFF" d="M315.728,62.079l0.094-0.538c0.225-0.083,0.567-0.189,1.029-0.318c0.463-0.132,0.841-0.263,1.135-0.396
		c0.035-0.106,0.082-0.292,0.138-0.559c0.135-0.605,0.261-1.019,0.38-1.243c0.189-0.353,0.482-0.713,0.875-1.087
		c0.611-0.569,1.291-1.124,2.041-1.664c0.749-0.542,1.242-0.863,1.478-0.966c0.235-0.102,0.567-0.152,0.996-0.152
		c0.282,0,0.569,0.057,0.866,0.169c-0.281,0.949-0.482,1.844-0.602,2.687l-0.316,0.064c-0.295-0.442-0.582-0.755-0.864-0.938
		c-0.281-0.184-0.534-0.273-0.759-0.273c-0.177,0-0.345,0.049-0.506,0.146c-0.16,0.1-0.29,0.233-0.385,0.4
		c-0.094,0.169-0.191,0.43-0.29,0.78c-0.252,0.934-0.46,1.87-0.62,2.805h0.241c0.189,0.006,0.661-0.015,1.412-0.064
		c0.456-0.027,0.797-0.063,1.021-0.104l0.107,0.169c-0.149,0.38-0.257,0.74-0.328,1.084c-0.329-0.006-0.869-0.01-1.621-0.01
		c-0.472,0-0.821,0.004-1.054,0.01l-1.167,5.07c-0.562,2.269-1.043,3.91-1.439,4.917c-0.396,1.008-0.927,1.898-1.592,2.668
		c-0.665,0.768-1.338,1.332-2.02,1.689c-0.359,0.189-0.704,0.283-1.036,0.283c-0.245,0-0.513-0.057-0.801-0.178
		c0.198-0.519,0.343-0.94,0.438-1.259c0.096-0.319,0.182-0.67,0.258-1.05l0.338-0.063c0.147,0.338,0.309,0.58,0.481,0.729
		c0.173,0.146,0.363,0.219,0.576,0.219c0.203,0,0.394-0.064,0.565-0.194c0.173-0.129,0.322-0.362,0.448-0.7
		c0.247-0.674,0.571-2.09,0.974-4.248l1.521-7.884c-0.421-0.006-0.883-0.01-1.382-0.01
		C316.107,62.069,315.896,62.073,315.728,62.079z"/>
	<path fill="#FFFFFF" d="M338.85,65.706h-0.927c-0.023-0.88-0.083-1.41-0.181-1.591c-0.048-0.092-0.175-0.159-0.378-0.2
		c-0.519-0.092-1.34-0.138-2.461-0.138c-0.16,0-0.44,0.004-0.841,0.01v1.17c0,1.665,0.021,2.832,0.06,3.504s0.093,1.065,0.163,1.177
		c0.049,0.077,0.138,0.137,0.264,0.183c0.127,0.046,0.677,0.104,1.654,0.176v0.832l-4.138-0.073c-0.598,0-1.544,0.023-2.84,0.073
		v-0.876c0.813-0.013,1.284-0.046,1.41-0.094c0.063-0.023,0.118-0.061,0.159-0.117c0.064-0.083,0.113-0.265,0.147-0.546
		c0.021-0.165,0.05-0.67,0.084-1.524c0.037-0.855,0.055-1.467,0.055-1.84v-4.362c0-0.099-0.031-1.083-0.096-2.951
		c-0.014-0.542-0.053-0.924-0.115-1.149c-0.021-0.077-0.056-0.136-0.102-0.173c-0.046-0.04-0.146-0.075-0.298-0.11
		c-0.151-0.035-0.567-0.075-1.245-0.117v-0.884l3.745,0.073l5.073-0.097c0.712,0,1.384,0.036,2.016,0.106l0.097,0.148
		c-0.078,0.4-0.146,0.909-0.201,1.528c-0.056,0.617-0.088,1.16-0.094,1.623h-0.866c0-0.169-0.018-0.547-0.052-1.133
		c-0.014-0.309-0.034-0.494-0.063-0.557c-0.021-0.048-0.054-0.084-0.095-0.104c-0.128-0.083-0.421-0.167-0.881-0.246
		c-0.46-0.081-0.997-0.121-1.617-0.121c-0.118,0-0.452,0.009-0.997,0.027c-0.544,0.019-0.913,0.033-1.111,0.046
		c-0.076,0.698-0.116,1.96-0.116,3.783v1.466c0.898,0.048,1.504,0.073,1.818,0.073c0.912,0,1.486-0.042,1.725-0.125
		c0.091-0.029,0.157-0.111,0.199-0.242c0.063-0.178,0.102-0.578,0.118-1.203h0.927C338.85,62.325,338.85,63.85,338.85,65.706z"/>
	<path fill="#FFFFFF" d="M342.002,70.828v-0.542c0.182-0.077,0.438-0.215,0.769-0.411c0.147-0.086,0.242-0.154,0.285-0.211
		c0.027-0.035,0.044-0.072,0.052-0.114c0.035-0.178,0.067-0.803,0.095-1.884c0.027-1.075,0.041-2.371,0.041-3.881
		c0-2.219-0.006-3.589-0.018-4.11c-0.022-1.32-0.066-2.075-0.13-2.265c-0.028-0.083-0.081-0.146-0.159-0.189
		c-0.162-0.104-0.703-0.176-1.621-0.211v-0.926c0.894,0.048,1.91,0.073,3.057,0.073c1.278,0,2.492-0.025,3.636-0.073v0.926
		c-0.794,0.035-1.278,0.1-1.452,0.189c-0.08,0.044-0.135,0.11-0.169,0.207c-0.037,0.094-0.069,0.527-0.102,1.299
		c-0.031,0.773-0.048,1.75-0.048,2.928c0,0.128,0.003,1.142,0.012,3.043c0.007,1.005,0.011,2,0.015,2.986s0.009,1.583,0.016,1.794
		c0.97,0.05,1.631,0.075,1.98,0.075c1.07,0,2.001-0.063,2.795-0.19c0.287-0.041,0.46-0.087,0.518-0.138
		c0.055-0.048,0.114-0.177,0.178-0.388c0.14-0.536,0.277-1.145,0.412-1.835h0.874c-0.021,0.196-0.031,0.313-0.031,0.349
		l-0.265,2.127c-0.055,0.669-0.088,1.069-0.096,1.203c-0.203,0.057-0.406,0.096-0.608,0.117c-0.43,0.033-1.095,0.052-1.994,0.052
		c-0.126,0-0.952-0.019-2.476-0.052c-1.161-0.027-1.968-0.044-2.426-0.044C344.453,70.732,343.406,70.764,342.002,70.828z"/>
	<path fill="#FFFFFF" d="M354.015,63.629c0-1.284,0.195-2.406,0.585-3.361c0.391-0.955,0.946-1.767,1.671-2.435
		c0.725-0.669,1.51-1.148,2.36-1.444c1.089-0.374,2.276-0.56,3.563-0.56c1.277,0,2.437,0.18,3.478,0.538
		c0.772,0.273,1.456,0.67,2.05,1.187c0.595,0.516,1.045,1.045,1.355,1.585c0.309,0.543,0.542,1.135,0.699,1.781
		c0.159,0.646,0.237,1.359,0.237,2.14c0,1.322-0.228,2.547-0.684,3.679c-0.337,0.845-0.831,1.592-1.481,2.244
		c-0.649,0.655-1.39,1.157-2.219,1.51c-1.139,0.47-2.438,0.705-3.899,0.705c-1.581,0-2.939-0.288-4.074-0.859
		c-1.135-0.573-2.026-1.418-2.672-2.536C354.339,66.687,354.015,65.295,354.015,63.629z M357.261,63.001
		c0,1.64,0.225,2.995,0.675,4.069c0.45,1.069,1.025,1.826,1.729,2.271s1.531,0.663,2.487,0.663c0.886,0,1.677-0.21,2.376-0.632
		c0.7-0.421,1.248-1.134,1.645-2.14c0.396-1.007,0.596-2.227,0.596-3.662c0-0.984-0.107-1.883-0.322-2.7
		c-0.214-0.815-0.521-1.51-0.921-2.081c-0.401-0.574-0.874-1.012-1.418-1.314c-0.544-0.302-1.267-0.454-2.166-0.454
		c-1.024,0-1.898,0.241-2.619,0.724c-0.721,0.481-1.244,1.192-1.569,2.135C357.424,60.822,357.261,61.862,357.261,63.001z"/>
	<path fill="#FFFFFF" d="M370.428,56.947v-0.863c0.161,0,0.725,0.015,1.688,0.048c0.471,0.017,1.137,0.025,2.002,0.025
		c0.738,0,1.37-0.015,1.896-0.049c0.873-0.037,1.591-0.058,2.161-0.058c1.103,0,1.929,0.081,2.477,0.237
		c0.548,0.158,1.016,0.488,1.402,0.988c0.385,0.499,0.579,1.107,0.579,1.825c0,0.851-0.265,1.627-0.789,2.323
		c-0.529,0.696-1.34,1.247-2.437,1.655c0.177,0.315,0.376,0.635,0.6,0.962c0.227,0.327,0.359,0.527,0.397,0.597
		c0.038,0.068,0.078,0.138,0.12,0.198l1.633,2.439c0.438,0.646,0.673,0.997,0.707,1.045c0.527,0.696,0.851,1.109,0.97,1.234
		s0.235,0.211,0.348,0.261s0.334,0.077,0.665,0.086v0.926c-1.084-0.027-1.865-0.042-2.352-0.042c-0.562,0-1.12,0.015-1.675,0.042
		c-0.035-0.154-0.118-0.356-0.253-0.601l-2.256-3.721c-0.646-1.067-1.193-1.908-1.645-2.52c-0.224-0.309-0.441-0.542-0.653-0.696
		l0.115-0.346c0.843,0.026,1.479-0.059,1.908-0.259s0.79-0.562,1.085-1.078c0.295-0.518,0.445-1.095,0.445-1.737
		c0-0.646-0.155-1.187-0.464-1.614c-0.312-0.43-0.693-0.729-1.15-0.898c-0.295-0.104-0.821-0.159-1.581-0.159
		c-0.337,0-0.67,0.029-1.002,0.086c-0.019,0.252-0.043,0.821-0.062,1.706c-0.042,1.991-0.064,3.319-0.064,3.989
		c0,1.053,0.012,2.173,0.032,3.354c0.028,1.449,0.05,2.271,0.063,2.469c0.021,0.393,0.059,0.651,0.115,0.77
		c0.027,0.057,0.073,0.108,0.137,0.152c0.064,0.046,0.165,0.086,0.307,0.11c0.141,0.029,0.549,0.051,1.224,0.067v0.926
		c-1.204-0.05-2.419-0.073-3.648-0.073c-1.097,0-2.11,0.023-3.046,0.073v-0.926c0.802-0.029,1.274-0.069,1.424-0.117
		c0.085-0.022,0.146-0.056,0.184-0.106c0.039-0.05,0.069-0.147,0.089-0.294c0.05-0.277,0.085-0.69,0.107-1.247l0.085-3.078v-3.914
		l-0.055-2.226c-0.014-0.88-0.056-1.405-0.126-1.583c-0.034-0.077-0.087-0.138-0.157-0.179
		C371.812,57.074,371.294,57.004,370.428,56.947z"/>
	<path fill="#FFFFFF" d="M392.867,56.084v0.926c-0.714,0.021-1.138,0.048-1.272,0.079c-0.133,0.031-0.229,0.071-0.285,0.117
		c-0.058,0.046-0.096,0.104-0.117,0.173c-0.05,0.121-0.084,0.349-0.107,0.687c-0.014,0.181-0.022,0.525-0.03,1.032
		c-0.029,1.729-0.042,2.658-0.042,2.792v4.248l0.031,1.927c0,0.727,0.036,1.197,0.107,1.414c0.027,0.099,0.073,0.173,0.142,0.228
		s0.174,0.096,0.317,0.127c0.146,0.029,0.565,0.053,1.257,0.069v0.926c-1.146-0.05-2.368-0.073-3.667-0.073
		c-1.131,0-2.139,0.023-3.024,0.073v-0.926c0.73-0.029,1.151-0.055,1.265-0.075c0.146-0.029,0.248-0.066,0.3-0.117
		c0.053-0.048,0.085-0.104,0.099-0.169c0.023-0.085,0.051-0.415,0.085-0.988c0.058-0.845,0.084-1.625,0.084-2.342v-4.404
		c0-1.397-0.006-2.299-0.019-2.699c-0.036-0.893-0.079-1.451-0.127-1.677c-0.023-0.09-0.056-0.16-0.102-0.21
		c-0.046-0.048-0.13-0.088-0.253-0.121c-0.122-0.031-0.567-0.061-1.332-0.09v-0.926c0.886,0.048,1.899,0.073,3.045,0.073
		C390.507,56.157,391.722,56.132,392.867,56.084z"/>
	<path fill="#FFFFFF" d="M394.945,70.828v-0.505c0.056-0.037,0.153-0.092,0.291-0.169c0.264-0.15,0.508-0.303,0.732-0.463
		c0.076-0.944,0.114-2.474,0.114-4.586v-1.729c0-0.929-0.017-2.288-0.053-4.079c-0.021-0.991-0.066-1.623-0.137-1.898
		c-0.021-0.063-0.048-0.11-0.083-0.146c-0.057-0.059-0.144-0.101-0.263-0.127c-0.118-0.027-0.559-0.092-1.319-0.19v-0.853
		l3.823,0.073c0.449,0,1.295-0.021,2.539-0.061c0.898-0.023,1.617-0.036,2.159-0.036c1.242,0,2.238,0.077,2.985,0.228
		c0.748,0.152,1.399,0.395,1.953,0.728c0.556,0.334,1.023,0.729,1.407,1.185c0.383,0.459,0.672,0.949,0.869,1.477
		c0.33,0.885,0.494,1.854,0.494,2.909c0,1.341-0.245,2.54-0.738,3.594c-0.49,1.055-1.166,1.936-2.026,2.645
		c-0.86,0.711-1.792,1.222-2.796,1.532c-1.004,0.315-2.216,0.472-3.634,0.472l-3.13-0.073L394.945,70.828z M399.149,69.531
		c0.655,0.106,1.28,0.16,1.878,0.16c0.934,0,1.763-0.1,2.487-0.296c0.533-0.15,1-0.365,1.4-0.645s0.786-0.694,1.154-1.243
		c0.369-0.548,0.655-1.201,0.86-1.96c0.203-0.76,0.305-1.577,0.305-2.457c0-0.801-0.102-1.574-0.305-2.323
		c-0.205-0.748-0.539-1.403-1.002-1.967c-0.464-0.561-1.05-0.968-1.762-1.222c-0.709-0.252-1.784-0.38-3.223-0.38
		c-0.542,0-1.139,0.046-1.794,0.138c-0.069,0.997-0.104,2.874-0.104,5.635v2.422C399.046,67.485,399.08,68.865,399.149,69.531z"/>
	<path fill="#FFFFFF" d="M409.461,70.828v-0.876c0.566-0.042,0.906-0.077,1.016-0.108c0.109-0.033,0.203-0.081,0.28-0.15
		c0.076-0.064,0.157-0.171,0.237-0.313c0.08-0.146,0.321-0.682,0.721-1.61c0.184-0.436,0.534-1.295,1.053-2.582l2.753-6.788
		l0.927-2.392h1.497l4.712,11.003l0.651,1.445l0.422,0.97c0.07,0.125,0.139,0.217,0.201,0.273c0.063,0.056,0.137,0.098,0.217,0.127
		s0.285,0.052,0.617,0.075c0.104,0.013,0.259,0.029,0.464,0.05v0.876l-2.93-0.073l-3.699,0.073v-0.876
		c0.85-0.033,1.33-0.081,1.439-0.142c0.107-0.059,0.162-0.159,0.162-0.301c0-0.173-0.08-0.459-0.242-0.859l-0.905-2.313h-5.433
		l-0.463,1.26c-0.35,0.968-0.525,1.572-0.525,1.811c0,0.166,0.057,0.285,0.169,0.354c0.167,0.1,0.67,0.162,1.505,0.189v0.876
		l-2.43-0.073L409.461,70.828z M414.107,65.126c0.661,0.021,1.411,0.031,2.251,0.031c0.808,0,1.532-0.01,2.174-0.031l-2.256-5.447
		L414.107,65.126z"/>
</g>
</svg>
