<svg viewBox="0 0 224 40" fill="none" xmlns="http://www.w3.org/2000/svg"><path fill-rule="evenodd" clip-rule="evenodd" d="M64.463 39.259h1.724V1.35h-1.724v37.91z" fill="#E56A24"/><path fill-rule="evenodd" clip-rule="evenodd" d="M204.26 5.376c.4 0 .765.003 1.102.009l-1.216 6.124c-.32 1.676-.578 2.777-.774 3.3-.101.262-.222.443-.36.545a.745.745 0 01-.45.151.704.704 0 01-.46-.17c-.138-.115-.265-.302-.383-.564l-.269.05a9.368 9.368 0 01-.208.815 14.01 14.01 0 01-.35.98c.23.093.444.14.641.14a1.8 1.8 0 00.825-.221c.544-.279 1.082-.718 1.612-1.315a7.12 7.12 0 001.272-2.073c.317-.784.701-2.058 1.149-3.822l.934-3.94a62.88 62.88 0 012.144 0 5.12 5.12 0 01.262-.848l-.084-.131c-.182.032-.455.06-.82.081-.603.038-.98.055-1.132.05h-.194a24.36 24.36 0 01.496-2.177c.08-.273.158-.475.233-.606a.847.847 0 01.712-.425c.181 0 .383.07.609.213.224.142.454.386.69.73l.252-.049c.096-.657.255-1.354.476-2.092a1.971 1.971 0 00-.691-.131c-.342 0-.608.04-.795.119-.189.079-.582.329-1.179.75-.6.419-1.144.85-1.631 1.292-.315.29-.548.571-.7.844-.096.175-.197.497-.303.966a4.847 4.847 0 01-.11.435 6.679 6.679 0 01-.906.309c-.37.101-.645.185-.824.251l-.075.419c.136-.006.302-.01.505-.01zM196.527 7.3c.25-.913.535-1.532.857-1.857a1.56 1.56 0 011.154-.487c.438 0 .794.149 1.067.447.272.297.41.78.41 1.446 0 .787-.119 1.612-.355 2.476-.163.59-.342 1.053-.536 1.389-.194.336-.407.579-.64.729a1.51 1.51 0 01-.831.226c-.479 0-.847-.146-1.11-.435-.261-.29-.392-.77-.392-1.442 0-.749.127-1.58.376-2.492zm-2.134 3.882c.153.402.423.717.814.947.391.23.921.344 1.588.344.567 0 1.076-.084 1.529-.25a7.14 7.14 0 001.415-.73c.491-.32.853-.61 1.083-.872.32-.377.602-.921.846-1.635a6.581 6.581 0 00.366-2.142c0-.377-.047-.724-.143-1.04a2.131 2.131 0 00-.444-.816c-.204-.228-.505-.411-.903-.553a3.92 3.92 0 00-1.323-.213c-.579 0-1.123.108-1.639.324a6.331 6.331 0 00-1.415.819c-.43.33-.729.596-.895.798-.272.323-.522.85-.756 1.582a6.954 6.954 0 00-.348 2.114c0 .48.075.922.225 1.323zm14.828 10.298l3.727 8.765c-1.057.035-2.255.053-3.592.053-1.385 0-2.623-.018-3.716-.053l3.581-8.765zm-7.266 17.802l4.011.123v-1.398c-1.379-.045-2.208-.146-2.485-.305-.185-.111-.278-.303-.278-.571 0-.384.289-1.35.866-2.904l.762-2.025h8.983l1.491 3.714c.267.64.4 1.102.4 1.383 0 .224-.091.384-.269.48-.18.097-.972.172-2.376.228v1.398l6.106-.123 4.834.123v-1.398a36.47 36.47 0 01-.766-.083c-.544-.036-.884-.075-1.017-.12a1.017 1.017 0 01-.355-.205 1.63 1.63 0 01-.331-.44l-.696-1.559-1.078-2.32-7.773-17.684h-2.481l-1.53 3.846-4.54 10.909a493.253 493.253 0 01-1.739 4.15c-.662 1.49-1.059 2.352-1.192 2.584-.134.231-.264.4-.391.508a1.284 1.284 0 01-.462.237c-.179.05-.738.108-1.679.177v1.398l3.985-.123zm-19.743-8.62v-3.888c0-4.43.06-7.444.179-9.045a21.523 21.523 0 012.961-.227c2.376 0 4.151.203 5.324.61 1.17.405 2.139 1.061 2.905 1.964s1.316 1.956 1.653 3.158c.336 1.203.505 2.448.505 3.736 0 1.408-.169 2.725-.505 3.945-.337 1.22-.809 2.269-1.418 3.15-.609.88-1.244 1.546-1.904 1.998-.662.451-1.433.796-2.316 1.032-1.195.318-2.562.475-4.106.475-.987 0-2.019-.087-3.099-.263-.119-1.07-.179-3.284-.179-6.645zm-1.501 8.62l5.164.123c2.341 0 4.341-.25 6-.753 1.657-.503 3.197-1.325 4.616-2.466 1.42-1.14 2.536-2.558 3.348-4.253.811-1.695 1.217-3.62 1.217-5.778 0-1.695-.271-3.253-.817-4.677a8.013 8.013 0 00-1.435-2.372 9.109 9.109 0 00-2.322-1.907c-.917-.535-1.992-.926-3.225-1.169-1.237-.242-2.88-.364-4.931-.364-.895 0-2.083.02-3.566.059-2.053.066-3.451.098-4.191.098l-6.315-.122v1.364c1.26.158 1.989.26 2.185.305.197.045.342.113.434.203a.598.598 0 01.139.237c.115.441.191 1.458.224 3.051.06 2.881.09 5.067.09 6.559v2.779c0 3.4-.064 5.859-.198 7.371-.368.262-.769.51-1.205.748a9.706 9.706 0 00-.481.272v.815l5.269-.123zm-13.467-23.459a92.21 92.21 0 01-5.037-.122v1.486c1.268.045 2.002.093 2.206.144.204.05.345.116.418.195.076.08.131.193.168.34.079.36.15 1.26.208 2.694.024.645.036 2.091.036 4.34v7.087a53.57 53.57 0 01-.144 3.763c-.057.925-.103 1.458-.139 1.593a.533.533 0 01-.165.272c-.087.078-.253.141-.497.186-.186.036-.882.075-2.091.118v1.486a90.633 90.633 0 015.001-.123c2.151 0 4.171.042 6.064.123V37.92c-1.145-.022-1.839-.059-2.078-.11-.241-.05-.415-.117-.527-.203a.688.688 0 01-.237-.364c-.116-.35-.176-1.108-.176-2.272l-.054-3.102v-6.831c0-.215.024-1.713.073-4.493.011-.814.03-1.368.054-1.662.035-.542.093-.91.176-1.102a.55.55 0 01.193-.278c.093-.074.25-.137.473-.187.221-.052.922-.094 2.103-.128v-1.486c-1.893.081-3.903.122-6.028.122zm-27.762 1.633a.647.647 0 01.259.287c.115.283.184 1.13.207 2.542l.091 3.575v6.284l-.144 4.947c-.036.892-.092 1.559-.174 1.997-.035.239-.084.397-.148.474-.062.082-.163.136-.301.172-.243.08-1.024.142-2.342.185v1.486a95.378 95.378 0 015.026-.123c2.027 0 4.033.042 6.017.123V37.92c-1.113-.022-1.787-.055-2.019-.101-.231-.045-.4-.104-.504-.176a.709.709 0 01-.226-.247c-.093-.192-.157-.603-.192-1.235-.024-.316-.059-1.637-.107-3.962a275.394 275.394 0 01-.053-5.38c0-1.072.034-3.203.106-6.398.038-1.424.072-2.34.108-2.747.546-.09 1.098-.137 1.656-.137 1.254 0 2.124.085 2.612.254.755.272 1.388.75 1.9 1.44.51.69.765 1.553.765 2.591 0 1.028-.242 1.956-.73 2.786-.489.83-1.087 1.405-1.797 1.727-.709.323-1.76.46-3.154.414l-.192.56c.348.248.708.62 1.08 1.116.742.982 1.648 2.33 2.715 4.046l3.726 5.972c.221.394.361.716.417.963.916-.046 1.84-.07 2.769-.07.799 0 2.092.024 3.88.07V37.92c-.546-.01-.911-.055-1.097-.134a1.821 1.821 0 01-.575-.42c-.196-.2-.73-.862-1.601-1.982a143.91 143.91 0 01-1.167-1.68l-2.697-3.914a3.725 3.725 0 01-.202-.319 18.44 18.44 0 00-.653-.958 19.803 19.803 0 01-.992-1.544c1.813-.656 3.156-1.542 4.029-2.66.871-1.119 1.309-2.361 1.309-3.727 0-1.153-.321-2.13-.958-2.933-.639-.8-1.411-1.329-2.316-1.583-.905-.254-2.268-.381-4.089-.381-.941 0-2.131.032-3.569.097-.87.051-1.914.077-3.133.077-1.428 0-2.529-.013-3.306-.04a151.027 151.027 0 00-2.786-.082v1.38c1.427.091 2.276.204 2.552.34zm-22.777 4.347c.539-1.516 1.404-2.661 2.594-3.436 1.19-.775 2.631-1.162 4.325-1.162 1.485 0 2.677.243 3.577.73.9.486 1.68 1.19 2.342 2.112.66.922 1.167 2.04 1.521 3.352.356 1.312.532 2.76.532 4.344 0 2.307-.327 4.27-.983 5.888-.657 1.619-1.562 2.767-2.716 3.446-1.154.678-2.463 1.018-3.924 1.018-1.578 0-2.948-.357-4.109-1.07-1.159-.712-2.11-1.932-2.854-3.658-.743-1.724-1.113-3.904-1.113-6.54 0-1.833.269-3.508.808-5.024zm-4.562 12.742a10.32 10.32 0 004.411 4.074c1.871.92 4.113 1.381 6.724 1.381 2.411 0 4.556-.379 6.434-1.135a11.42 11.42 0 003.663-2.424 10.692 10.692 0 002.444-3.608c.753-1.818 1.129-3.789 1.129-5.911 0-1.256-.13-2.401-.39-3.44a10.748 10.748 0 00-1.157-2.862c-.511-.87-1.254-1.72-2.236-2.551a10.475 10.475 0 00-3.381-1.907c-1.718-.575-3.632-.863-5.743-.863-2.122 0-4.08.3-5.879.898-1.403.475-2.701 1.249-3.895 2.322-1.197 1.073-2.116 2.377-2.76 3.913-.642 1.536-.964 3.337-.964 5.404 0 2.677.533 4.913 1.6 6.71zM97.132 39.25c.753 0 2.087.023 4.001.069 2.515.058 3.879.087 4.087.087 1.485 0 2.58-.029 3.288-.087a6.15 6.15 0 001.008-.192c.013-.215.065-.857.159-1.93l.436-3.42c0-.057.017-.242.052-.559h-1.437a45.255 45.255 0 01-.679 2.96c-.105.34-.204.55-.296.63-.093.08-.377.152-.854.22-1.312.199-2.85.297-4.615.297-.58 0-1.672-.039-3.274-.12-.012-.34-.022-1.302-.027-2.888-.006-1.587-.015-3.187-.027-4.8l-.017-4.894c0-1.898.026-3.468.08-4.708.053-1.242.11-1.94.168-2.091a.595.595 0 01.278-.332c.29-.146 1.09-.248 2.402-.304v-1.486c-1.89.081-3.893.122-6.003.122a93.39 93.39 0 01-5.045-.122v1.486c1.514.056 2.404.17 2.67.34a.532.532 0 01.263.305c.104.304.177 1.518.216 3.641.022.836.03 3.038.03 6.608 0 2.429-.024 4.51-.072 6.244-.048 1.735-.1 2.742-.158 3.024a.399.399 0 01-.087.187c-.07.09-.225.202-.467.338-.543.316-.964.537-1.263.66v.871c2.318-.104 4.046-.156 5.183-.156zm-9.687-15.42h-1.528c-.023 1-.086 1.643-.19 1.926-.07.213-.18.342-.33.386-.393.136-1.34.205-2.84.205-.521 0-1.52-.04-2.999-.12v-2.355c0-2.928.066-4.952.198-6.074.324-.02.936-.046 1.832-.077.898-.03 1.446-.046 1.643-.046 1.019 0 1.908.065 2.666.194.76.128 1.243.26 1.452.395.068.034.121.09.156.167.046.101.081.399.104.891.058.94.086 1.545.086 1.815h1.42c.012-.746.064-1.615.156-2.608.094-.995.202-1.814.33-2.457l-.158-.237a30.932 30.932 0 00-3.325-.17l-8.372.157-6.181-.122v1.416c1.121.068 1.808.13 2.06.187.25.057.415.116.49.178a.545.545 0 01.167.28c.105.36.17.978.192 1.847a553 553 0 01.162 4.75v7.019c0 .598-.028 1.585-.09 2.958-.06 1.374-.107 2.19-.142 2.45-.057.451-.14.746-.246.882a.531.531 0 01-.262.187c-.21.079-.988.13-2.332.152v1.398c2.141-.081 3.705-.123 4.693-.123l6.84.123V38.06c-1.612-.112-2.523-.206-2.732-.278-.21-.074-.354-.173-.436-.297-.116-.18-.207-.809-.272-1.886-.066-1.076-.099-2.953-.099-5.625v-1.879c.659-.01 1.121-.017 1.387-.017 1.847 0 3.2.074 4.055.22.334.07.542.175.623.322.162.293.26 1.146.294 2.552h1.528v-7.34zm94.092-19.753a16.51 16.51 0 00-1.057-1.768c-.238-.346-.426-.58-.563-.706-.135-.125-.351-.268-.647-.43a19.79 19.79 0 01-.809.192l-1.548.298v.533c.365 0 .58.015.642.044.102.051.276.206.52.46.364.388.758.903 1.18 1.548.521.79 1.011 1.59 1.467 2.405.185.34.28.565.28.674v1.349c0 .378-.013.837-.038 1.376-.013.236-.041.378-.076.426-.036.047-.103.083-.198.107-.094.023-.418.044-.975.063v.63a46.495 46.495 0 012.218-.052c.748 0 1.588.016 2.518.052v-.63c-.544-.008-.865-.027-.967-.057a.4.4 0 01-.221-.127c-.044-.057-.082-.223-.113-.497-.033-.274-.047-.711-.047-1.313v-1.2c0-.246.011-.423.035-.531.034-.152.105-.329.211-.533.161-.298.583-.969 1.266-2.01a47.173 47.173 0 011.908-2.72v-.32h-1.153a17.48 17.48 0 01-.501.886 516.269 516.269 0 01-1.384 2.377l-.92 1.446a75.15 75.15 0 00-1.028-1.972zm-11.952 7.14c.649 0 1.447.02 2.391.061v-.586c-.587-.019-.935-.058-1.047-.117a.423.423 0 01-.22-.273c-.054-.208-.081-.824-.081-1.846V4.203c0-1.131.007-1.78.023-1.945h1.043c.56 0 1.039.019 1.438.057.127.009.205.025.234.049.034.033.066.135.095.305.055.336.085.688.095 1.058h.602c.013-1 .024-1.519.03-1.556a7.05 7.05 0 01.078-.76l-.073-.07c-.229.023-.455.038-.677.047-.415.015-1.233.022-2.458.022h-2.943c-1.192 0-1.996-.007-2.414-.022-.258-.009-.5-.024-.729-.048l-.066.07c.035.242.058.467.073.675.004.123.017.67.035 1.642h.603a6.89 6.89 0 01.109-1.115c.024-.136.053-.22.088-.248.023-.024.117-.043.279-.056.397-.034.862-.05 1.387-.05h1.047c.012.137.018.785.018 1.945v4.253c0 1.022-.028 1.635-.082 1.839a.442.442 0 01-.223.284c-.11.056-.457.094-1.042.113v.586c.9-.041 1.696-.061 2.387-.061zm-10.136-9.824a37.78 37.78 0 01-2.11-.053v.629c.528.019.834.04.919.06.085.022.142.05.174.082.032.034.054.08.068.142.035.152.064.527.088 1.129.011.27.018.875.018 1.817v2.966c0 .483-.022 1.008-.063 1.575a7.42 7.42 0 01-.057.667.227.227 0 01-.07.114c-.035.034-.105.06-.207.078-.077.014-.367.03-.87.05v.63a36.458 36.458 0 012.096-.053c.899 0 1.745.016 2.54.052v-.63c-.481-.008-.773-.024-.874-.045a.563.563 0 01-.22-.085.285.285 0 01-.099-.154c-.049-.146-.074-.463-.074-.95l-.018-1.298V5.255c0-.09.01-.716.03-1.88.006-.341.014-.573.023-.696.015-.227.041-.381.074-.46a.237.237 0 01.08-.118.509.509 0 01.198-.078c.093-.022.385-.04.88-.054V1.34a58.02 58.02 0 01-2.526.053zm-6.481 1.378c.03-.295.079-.596.147-.903l-.058-.17a5.08 5.08 0 00-1.26-.39 8.13 8.13 0 00-1.501-.135c-.496 0-.98.054-1.453.16a3.84 3.84 0 00-1.27.53 2.655 2.655 0 00-.905 1.039 3.172 3.172 0 00-.344 1.466c0 .379.063.732.19 1.061.126.33.319.61.574.842.255.232.592.41 1.011.532.278.08.857.21 1.737.39.614.138 1.042.271 1.286.399.243.129.422.299.537.511a1.6 1.6 0 01.171.768c0 .355-.082.672-.244.952-.163.28-.426.499-.79.658a3.048 3.048 0 01-1.237.238 3.227 3.227 0 01-1.467-.336c-.449-.222-.765-.48-.95-.775a8.664 8.664 0 01-.081-1.275h-.609c-.007 1.103-.084 1.925-.235 2.464a7.648 7.648 0 001.54.562 7 7 0 001.597.163c.817 0 1.517-.113 2.101-.34.366-.142.72-.357 1.065-.642.345-.286.615-.603.81-.949.259-.458.387-.991.387-1.596a2.9 2.9 0 00-.14-.934 2.267 2.267 0 00-.353-.689 1.966 1.966 0 00-.58-.483 3.828 3.828 0 00-.956-.358 24.38 24.38 0 00-.98-.178 39.79 39.79 0 01-1.177-.212c-.371-.095-.65-.2-.84-.314a1.166 1.166 0 01-.437-.462c-.102-.193-.156-.447-.161-.76 0-.436.183-.816.545-1.14.364-.325.875-.487 1.539-.487.462 0 .881.08 1.253.242.372.16.636.344.785.552.04.227.063.616.074 1.164h.61c.014-.481.037-.87.069-1.165zm-18.844-.704c.048.03.084.069.108.121.048.119.077.475.087 1.065l.036 1.5v2.635l-.062 2.075a6.281 6.281 0 01-.074.838.441.441 0 01-.061.199.217.217 0 01-.126.07c-.102.034-.429.06-.98.079v.63a38.324 38.324 0 012.107-.053c.849 0 1.691.016 2.522.052v-.63c-.466-.008-.75-.023-.846-.042a.568.568 0 01-.212-.075.289.289 0 01-.095-.103c-.038-.08-.066-.254-.08-.52a64.25 64.25 0 01-.042-1.663c-.013-.795-.021-1.55-.021-2.26 0-.45.016-1.346.045-2.687.016-.596.03-.98.045-1.149.228-.038.459-.057.693-.057.526 0 .889.035 1.094.106.315.114.58.316.793.606.215.29.321.652.321 1.088 0 .432-.102.822-.307 1.171-.204.35-.455.591-.751.727-.297.135-.738.193-1.322.174l-.081.234c.147.104.298.26.452.469.312.411.691.979 1.141 1.698l1.561 2.508c.092.166.15.3.175.405a24.92 24.92 0 011.16-.027c.335 0 .878.01 1.628.027v-.63c-.229-.004-.382-.023-.459-.056a.727.727 0 01-.242-.176c-.084-.085-.307-.362-.671-.83-.025-.034-.187-.269-.49-.705l-1.13-1.643c-.031-.041-.057-.086-.085-.133a8.292 8.292 0 00-.275-.401 7.984 7.984 0 01-.414-.648c.757-.275 1.318-.647 1.683-1.117.364-.468.547-.99.547-1.563 0-.483-.134-.892-.401-1.23a1.869 1.869 0 00-.969-.664c-.379-.106-.95-.16-1.714-.16-.394 0-.892.013-1.494.04-.366.02-.802.03-1.313.03-.597 0-1.06-.006-1.386-.017a56.278 56.278 0 00-1.167-.035v.585c.599.038.957.085 1.072.142zm-9.596 9.15c.436 0 1.235.009 2.391.025l1.175.027c.574 0 1.016-.018 1.327-.052l.094-.093c0-.605.052-1.375.157-2.31h-.6c-.098.632-.189 1.061-.278 1.288-.029.066-.059.109-.094.128-.101.062-.374.109-.818.142-.441.033-.925.05-1.448.05-.538 0-1.003-.019-1.396-.053a16.192 16.192 0 01-.018-.855V6.54c.308-.034.701-.052 1.175-.052.53 0 .963.025 1.3.078.152.024.257.083.316.177.078.127.115.465.112 1.012h.59l-.035-1.551.035-1.56h-.59c-.012.42-.045.72-.103.9a.272.272 0 01-.106.15c-.046.027-.2.044-.459.049-.693.019-1.094.029-1.204.029-.359 0-.703-.012-1.031-.035V4.272c0-.829.033-1.511.099-2.05a17.61 17.61 0 011.323-.052c.46 0 .93.026 1.409.079.324.032.519.07.582.113a.26.26 0 01.087.142c.034.128.056.47.067 1.03h.565l.073-1.025.139-1.025-.05-.091a1.024 1.024 0 00-.241-.046c-.534-.02-.889-.03-1.064-.03l-1.48.037c-.817.014-1.559.02-2.224.02-.306 0-.627.002-.963.004l-1.691.015v.55c.573.028.923.07 1.054.128.05.023.088.059.111.106.053.119.087.445.102.979.012.8.018 1.262.018 1.385v3.193c0 .37-.02.961-.06 1.774-.02.446-.045.768-.075.966-.183.142-.42.278-.71.412v.383c1.508-.034 2.32-.052 2.437-.052zm-10.558.114c.297-.81.862-2.188 1.699-4.138l.985-2.286.518-1.177c.418-.975.693-1.512.824-1.611.077-.057.352-.108.826-.15V1.34l-1.578.053-1.853-.053v.629c.221.006.488.021.804.05.14.01.227.022.263.035.043.019.078.05.106.09.025.039.04.099.04.18a.902.902 0 01-.016.17c-.048.194-.182.575-.4 1.143-.307.804-.48 1.253-.52 1.343l-1.622 3.907-1.846-4.383a3.402 3.402 0 01-.047-.132c-.013-.036-.111-.27-.296-.707-.321-.756-.48-1.206-.48-1.348 0-.072.019-.129.06-.174a.427.427 0 01.223-.102c.184-.043.482-.066.89-.072V1.34l-2.62.053c-.253 0-.963-.018-2.13-.053v.629c.456.01.759.052.905.127.096.053.239.26.426.623.188.36.689 1.485 1.501 3.374l1.035 2.405c.38.895.775 1.838 1.189 2.833h1.114zm-11.655-9.938a37.78 37.78 0 01-2.11-.053v.629c.528.019.834.04.92.06.084.022.141.05.172.082a.28.28 0 01.069.142c.035.152.064.527.088 1.129.012.27.018.875.018 1.817v2.966c0 .483-.021 1.008-.063 1.575-.023.388-.044.61-.058.667a.225.225 0 01-.069.114c-.036.034-.105.06-.205.078-.079.014-.368.03-.872.05v.63a36.421 36.421 0 012.095-.053c.9 0 1.747.016 2.541.052v-.63c-.482-.008-.772-.024-.874-.045a.57.57 0 01-.221-.085.297.297 0 01-.099-.154c-.049-.146-.073-.463-.073-.95l-.019-1.298V5.255c0-.09.012-.716.031-1.88.006-.341.013-.573.023-.696.015-.227.039-.381.074-.46a.23.23 0 01.08-.118.516.516 0 01.198-.078c.093-.022.386-.04.88-.054V1.34a57.46 57.46 0 01-2.526.053zm-16.822 9.885a45.866 45.866 0 011.928-.052c.127 0 .653.009 1.578.025v-.576a2.484 2.484 0 01-.146.007c-.146 0-.376-.019-.693-.057a.523.523 0 01-.245-.075.284.284 0 01-.099-.138c-.038-.118-.067-.453-.087-1.002a51.419 51.419 0 01-.054-2.295V3.577c2.885 3.424 5.111 5.99 6.682 7.701.425.056.843.118 1.253.184l.095-.064c-.065-.672-.099-2.584-.099-5.734 0-.402.01-1.027.032-1.871.02-.846.067-1.388.142-1.624a.173.173 0 01.08-.107c.112-.07.464-.113 1.057-.128V1.34a42.48 42.48 0 01-1.86.053 28.3 28.3 0 01-1.635-.053v.594c.647.01 1.027.057 1.14.142.067.052.111.166.13.342.06.45.088 1.948.088 4.498V8.56c-.675-.678-1.527-1.616-2.552-2.814a135.93 135.93 0 01-3.64-4.405l-.672.026-1.058.027c-.293 0-.748-.018-1.365-.053v.594c.516.034.825.064.932.093a.471.471 0 01.23.116.52.52 0 01.106.232c.024.104.04.329.044.675l.035 2.067v2.281c0 .631-.01 1.143-.03 1.535-.04.693-.074 1.128-.103 1.308-.026.133-.056.22-.093.263a.318.318 0 01-.135.093c-.082.024-.411.05-.986.078v.603zM72.518 2.025c.097.071.16.133.184.184.044.096.073.247.09.455.022.531.034 1.127.034 1.79v1.804l-.007 1.365c0 .749.013 1.207.037 1.377.033.276.129.561.285.857.155.296.381.563.68.803.295.24.678.43 1.144.571a7.146 7.146 0 002.074.291c.634 0 1.19-.066 1.672-.198.482-.133.898-.33 1.249-.59.349-.26.62-.551.814-.873.192-.322.32-.71.382-1.165.065-.455.096-.896.096-1.322v-1.67c0-.492.017-1.164.05-2.017.031-.852.066-1.331.103-1.438.037-.107.084-.18.142-.216.116-.072.401-.108.854-.108V1.34l-1.62.045a4.583 4.583 0 01-.197.008c-.166 0-.689-.018-1.568-.053v.585c.539.015.888.062 1.05.142a.342.342 0 01.167.172c.054.121.087.483.102 1.08.006.274.01 1.037.01 2.287v1.45c0 1.01-.085 1.694-.257 2.054-.17.36-.456.652-.856.877-.403.226-.942.338-1.618.338-.588 0-1.075-.084-1.456-.252-.382-.169-.666-.389-.851-.66-.185-.273-.3-.632-.343-1.078-.018-.203-.028-.739-.028-1.606l-.007-.83v-1.65c0-1 .032-1.646.099-1.94.024-.123.072-.206.145-.248.142-.091.476-.136 1.004-.136V1.34l-.271.01-.984.025-.988.018-2.374-.053v.585l.958.1zM41.626 32.872v-9.704h9.188V16.77h-9.188V7.705h10.088v3.518h6.656V1.36H31.724v6.344h2.496v25.167h-2.487v6.399H44.03v-6.399h-2.405zm-13.368-7.93V7.704h2.462V1.361H18.396v6.343h2.403V22.8c0 6.327-.751 9.367-5.42 9.367-4.67 0-5.42-3.04-5.42-9.367V7.704h2.384V1.361H0v6.343h2.444v17.239c0 3.764 0 6.85 1.826 9.621 2.04 3.137 5.742 5.132 11.11 5.132 9.498 0 12.878-4.818 12.878-14.753z" fill="#fff"/></svg>