<svg viewBox="0 0 173 64" fill="none" xmlns="http://www.w3.org/2000/svg"><path d="M77.675 10.404C67.627 3.41 55.832 0 43.95 0 31.98 0 20.272 3.41 10.136 10.404l-1.572 1.137v.35C19.398 5.771 31.63 2.798 43.95 2.798c12.32-.088 24.465 2.972 35.386 9.093v-.35l-1.66-1.137zm-24.901 9.093v-1.311h-4.893c-.961 0-2.796 0-5.505.087-2.708 0-4.63.087-5.679.087-1.048 0-3.32-.087-4.63-.087h-.874s-3.408.087-4.37.087c-1.048 0-2.795-.087-5.067-.174v1.311c1.66 0 2.621.087 3.058.262.35.088.612.263.787.525.174.262.262 1.05.262 2.36.087 1.837.087 3.673.087 5.596v6.47a61.71 61.71 0 01-.175 4.547c-.174 1.224-.35 2.185-.611 2.797-.262.7-.787 1.312-1.398 1.836-.612.525-1.486 1.05-2.709 1.4a15.16 15.16 0 01-4.194.611c-1.31 0-2.534-.175-3.67-.437-1.135-.262-1.922-.7-2.62-1.136-.874-.613-1.486-1.4-1.836-2.361-.35-.962-.611-2.973-.611-5.945V28.24c.087-3.672.087-5.683.087-5.945 0-1.05.175-1.749.35-2.011.087-.175.35-.35.699-.525.35-.087 1.398-.175 3.058-.262v-1.311c-1.922.087-3.932.174-5.942.174-2.01 0-4.106-.087-6.378-.174v1.311c1.66 0 2.709.087 3.058.262.35.088.612.263.786.525.175.262.263 1.05.263 2.36 0 1.837.087 3.673.087 5.596v9.355c0 2.71.175 4.634.612 5.77.35.875.873 1.75 1.747 2.536.786.874 2.01 1.487 3.67 2.011 1.572.525 3.495.787 5.592.787 1.835 0 3.582-.175 5.067-.612 1.486-.437 2.796-1.05 3.758-1.836 1.31-1.05 2.184-2.273 2.708-3.672s.7-3.76.7-7.257V28.24c0-3.672.087-5.683.087-5.945 0-1.05.174-1.749.349-2.011.175-.175.35-.35.786-.525.262-.087 1.049-.175 2.272-.175.437 0 2.621.088 2.97.175.35.088.612.263.787.525.175.262.262 1.05.262 2.36 0 1.837.088 3.673.088 5.596v9.792c-.088 3.673-.088 5.684-.088 5.946 0 1.049-.175 1.748-.35 2.01-.174.175-.349.35-.786.525-.35.088-1.398.175-3.058.263v1.311c3.058-.087 5.33-.175 6.99-.175 1.748 0 3.583.088 5.33.175v-1.312c-1.66 0-2.709-.087-3.058-.262-.35-.087-.612-.35-.786-.524-.175-.263-.263-1.05-.263-2.361-.087-1.836-.087-3.672-.087-5.596v-4.284c1.049-.087 2.097-.087 3.058-.087 2.796 0 4.631.087 5.417.262.437.088.7.262.787.437.087.088.174.962.35 2.448l.174 1.312h1.31l-.174-5.159.175-4.808h-1.311l-.175 1.311c-.175 1.05-.262 1.661-.35 1.749-.087.175-.349.262-.786.35-1.048.174-2.534.262-4.281.262-1.223 0-2.621 0-4.194-.088v-4.633c.087-2.798.087-4.46.087-4.81 0-.699.088-1.398.175-2.098a37.723 37.723 0 014.369-.262c1.398 0 2.709.088 3.757.175s2.01.35 2.709.525c.262.874.436 2.185.524 3.934h1.31c0-1.749.263-3.76.35-5.071.087 0 0 0 0 0z" fill="#E56A24"/><path d="M82.48 22.296c0-1.05.175-1.749.35-2.011.088-.175.35-.35.7-.525.349-.087 1.397-.175 3.057-.262v-1.312c-3.67.088-5.767.175-6.116.175-1.136 0-3.233-.087-6.204-.175v1.312c1.66 0 2.709.087 3.059.262.349.088.611.262.786.525.175.262.262 1.049.262 2.36.087 1.837.087 3.672.087 5.596v2.973c-1.835.087-4.28.175-7.339.175-4.02 0-7.34-.088-10.135-.175V28.24c.087-3.672.087-5.683.087-6.033 0-1.049.175-1.748.35-2.01.174-.175.349-.35.786-.525.35-.088 1.398-.175 3.058-.262v-1.312l-6.029.262-6.203-.175h-.263v1.312h.088c1.66 0 2.621.087 2.97.262.35.088.612.262.787.525.175.262.262 1.049.262 2.36.087 1.837.087 3.672.087 5.596v9.792c-.087 3.672-.087 5.683-.087 5.946 0 1.049-.175 1.748-.35 2.01-.174.175-.349.35-.786.525-.35.088-1.398.175-3.058.262v1.312c2.184-.087 4.369-.175 6.553-.175 2.01 0 3.932.088 5.854.175v-1.312c-1.66 0-2.708-.087-3.058-.262-.35-.087-.612-.262-.786-.525-.175-.262-.262-1.049-.262-2.36 0-1.836-.088-3.672-.088-5.596v-4.808c3.408-.088 6.291-.175 8.475-.175 2.01 0 4.98.087 9 .175v4.808c-.087 3.672-.087 5.683-.087 5.946 0 1.049-.175 1.748-.35 2.01-.175.175-.35.35-.786.525-.35.088-1.398.175-3.058.262v1.312c2.01-.087 3.844-.175 5.679-.175 1.747 0 3.932.088 6.64.175v-1.312c-1.66 0-2.62-.087-3.058-.262-.35-.087-.611-.35-.786-.525-.175-.262-.262-1.049-.262-2.36-.087-1.836-.087-3.672-.087-5.596v-9.705c.174-3.76.262-5.77.262-6.032zm21.67 22.557l-.699 1.486c-.962.612-1.661 1.05-2.097 1.224a33.63 33.63 0 01-2.272.787c-.874.175-1.748.262-2.709.262-1.835 0-3.495-.35-5.067-1.136-1.486-.787-2.709-1.924-3.495-3.498-.874-1.573-1.224-3.322-1.224-5.42 0-1.574.263-3.06.7-4.372.436-1.311.96-2.273 1.485-2.885.437-.437 1.048-.962 1.922-1.574.874-.612 1.748-1.049 2.534-1.399 1.136-.437 2.272-.7 3.582-.7 1.573 0 2.97.35 4.282 1.05 1.31.7 2.184 1.661 2.795 2.973.612 1.224.874 2.623.874 4.196 0 .438 0 .875-.087 1.4-1.049.174-1.922.349-2.709.349-1.485.087-3.058.175-4.543.175h-6.728c0 2.01.35 3.672 1.049 4.896.699 1.224 1.572 2.186 2.795 2.798 1.136.612 2.36.874 3.67.874.874 0 1.748-.175 2.534-.437.874-.262 1.922-.787 3.145-1.574l.263.525zm-13.456-8.569c.35 0 1.136.088 2.272.088 2.097.087 3.495.087 4.281.087 1.835 0 3.058 0 3.67-.087v-.787c0-2.186-.437-3.847-1.31-4.896-.875-1.05-2.098-1.574-3.583-1.574-1.573 0-2.883.612-3.845 1.749-.96 1.136-1.485 2.885-1.485 5.42zm17.912-2.624l-1.136-.261v-2.711c1.748-1.136 3.233-1.923 4.369-2.36a10.125 10.125 0 012.971-.438c1.572 0 2.97.263 4.019.875 1.136.612 1.922 1.486 2.446 2.623.35.787.525 1.836.525 3.235l-.088 3.847v6.295c0 .7.088 1.136.175 1.486.087.175.175.35.437.437.175.087.437.175.874.175l1.397.087v1.224c-1.135-.087-2.184-.174-3.058-.174-.873 0-2.009.087-3.407.174l.087-3.672c-2.883 2.186-4.543 3.41-5.068 3.672-.524.263-1.223.438-2.009.438-1.66 0-3.058-.438-3.932-1.4-.961-.874-1.398-2.098-1.398-3.584 0-.962.175-1.836.524-2.623.35-.787.699-1.399 1.224-1.923.436-.438.961-.787 1.398-1.05.786-.35 2.097-.786 3.931-1.224 1.835-.437 3.67-.786 5.418-.961 0-1.312-.175-2.361-.525-3.148-.349-.787-.873-1.399-1.747-1.836-.787-.437-1.748-.7-2.971-.7-.874 0-1.573.088-2.184.35-.612.263-1.049.438-1.136.612l-.35.787c-.349.612-.611 1.312-.786 1.749zm9.699 3.323c-1.835.35-3.408.612-4.719 1.05-1.31.35-2.184.786-2.708 1.223-.35.263-.612.612-.874 1.05-.349.7-.524 1.486-.524 2.36 0 1.05.262 1.836.874 2.448.611.612 1.398.875 2.446.875.961 0 1.835-.263 2.796-.787.961-.525 1.835-1.312 2.709-2.448v-5.77zm6.64 11.191V46.95h2.009c.35 0 .525-.087.699-.175a.685.685 0 00.35-.35c.175-.262.262-.786.262-1.486 0-.175.087-2.185.175-6.032v-8.743c0-2.361 0-4.81-.088-7.257-.087-1.662-.174-2.623-.262-2.798-.087-.175-.175-.262-.349-.262-.175-.088-1.223-.175-2.971-.175V18.36c3.145-.437 5.417-.874 6.64-1.486.175-.087.35-.087.437-.087.088 0 .175 0 .262.087.088.087.088.175.088.262v1.137c-.088 2.535-.088 4.634-.088 6.47v14.251c.088 3.672.088 5.596.088 5.945 0 .7.087 1.224.262 1.574.087.087.175.262.262.35.087.087.262.175.524.262.088 0 .874 0 2.359.088v1.224c-1.922-.088-3.582-.175-5.067-.175-1.486-.263-3.321-.263-5.592-.088zm10.835-16.611v-.874c1.311-.525 2.447-1.05 3.233-1.4v-6.382c1.485-.524 2.621-1.049 3.582-1.66l.525.436c-.175 1.137-.35 3.76-.525 7.694h4.194c.699 0 1.311 0 1.661-.087l.174.175-.437 1.923h-5.504l-.088 8.568v3.76c.088.437.175.787.437 1.05.175.261.437.524.787.699.349.174.873.35 1.572.437.612 0 1.049 0 1.398-.088.35-.087.787-.175 1.398-.35l.263.787a17.521 17.521 0 00-1.923 1.662c-.524.175-1.048.35-1.485.35-.437.087-.961.087-1.573.087-.786 0-1.31-.088-1.747-.263a5.586 5.586 0 01-1.224-.699 2.836 2.836 0 01-.873-1.137c-.262-.437-.437-1.224-.437-2.185 0-.962 0-2.011.087-3.148v-9.443h-.874c-.961 0-1.747.088-2.621.088z" fill="#ECF2F8"/><path d="M148.273 48.175V46.95h2.01c.349 0 .524-.088.699-.175a.683.683 0 00.349-.35c.175-.262.262-.787.262-1.486 0-.175.088-2.186.175-6.033V27.978c0-2.36 0-4.809-.087-7.257-.088-1.661-.175-2.623-.263-2.798-.087-.174-.174-.262-.349-.262-.175-.087-1.223-.175-2.883-.175v-1.224c3.145-.437 5.417-.874 6.64-1.486.175-.088.349-.088.437-.088.087 0 .175 0 .262.088.087.087.087.175.087.262v1.137c-.087 2.535-.087 4.634-.087 6.47v9.442c.175-.175.786-.612 1.66-1.399.874-.787 1.485-1.311 1.66-1.398.262-.263.437-.438.612-.525.262-.175.699-.262 1.223-.437a8.615 8.615 0 012.097-.263c1.311 0 2.534.35 3.67.875 1.136.612 1.922 1.399 2.446 2.273.437.962.699 2.273.699 4.11v3.671l.088 2.886c0 1.836.087 2.797.087 3.06 0 .7.087 1.136.262 1.486.087.175.175.262.262.35.088.087.262.175.524.175.088 0 .787 0 2.185.087v1.224c-1.573-.087-2.796-.087-3.495-.087-.612 0-1.922 0-3.845.087.175-2.098.262-4.11.262-6.033v-5.246c0-1.66-.087-2.797-.349-3.497-.262-.7-.699-1.399-1.485-1.923-.699-.612-1.748-.875-2.971-.875-.786 0-1.485.088-2.097.35-.612.262-1.136.525-1.66 1.05a6.983 6.983 0 00-1.311 1.486c-.175.262-.262.524-.349.961-.088.35-.088 1.05-.088 2.186v2.448c.088 3.672.088 5.596.088 5.946 0 .699.087 1.224.262 1.573a1.2 1.2 0 00.262.35c.087.088.262.175.524.175.088 0 .874 0 2.359.087v1.224c-2.534-.087-4.194-.175-5.155-.175-1.048-.35-2.883-.35-5.679-.174zM6.029 57.093v3.847c0 1.137.437 1.749 1.223 1.749s1.223-.525 1.223-1.749v-3.847h1.486v3.76c0 2.098-1.049 3.06-2.796 3.06-1.66 0-2.709-.962-2.709-3.06v-3.76h1.573zm5.854 6.644v-6.732h1.747l1.398 2.448c.437.7.787 1.574 1.136 2.273-.087-.874-.087-1.749-.087-2.798v-1.923h1.398v6.732h-1.573l-1.398-2.623c-.437-.7-.874-1.574-1.136-2.36.088.874.088 1.835.088 2.972v2.011h-1.573zm9.437-6.644v6.732h-1.486v-6.732h1.485zm3.931 6.644l-2.097-6.732h1.66l.787 2.797c.262.787.437 1.574.611 2.361.175-.787.35-1.574.612-2.36l.874-2.886h1.572L27 63.65h-1.75v.088zm9.174-2.797H31.98v1.573h2.709v1.224h-4.282v-6.732h4.107v1.224h-2.621v1.399h2.446v1.311h.087zm2.448-3.76a12.265 12.265 0 012.01-.175c.96 0 1.66.175 2.183.524.437.35.612.787.612 1.4 0 .874-.611 1.398-1.136 1.66.437.175.7.613.874 1.224.175.787.437 1.662.524 1.924h-1.572c-.088-.175-.263-.7-.437-1.574-.175-.874-.437-1.049-1.136-1.049h-.437v2.623h-1.485V57.18zm1.485 2.885h.611c.787 0 1.224-.35 1.224-.962s-.437-.962-1.136-.962c-.35 0-.612 0-.7.088v1.836zm5.066 2.275c.437.174 1.048.436 1.66.436.699 0 1.048-.262 1.048-.7 0-.436-.35-.699-1.136-.96-1.135-.438-1.834-1.05-1.834-2.012 0-1.136.96-2.01 2.533-2.01.787 0 1.311.174 1.748.349l-.35 1.224c-.262-.087-.699-.35-1.398-.35-.611 0-.96.35-.96.612 0 .438.349.612 1.223.962 1.135.437 1.747 1.05 1.747 2.011 0 1.137-.874 2.098-2.709 2.098-.786 0-1.485-.175-1.922-.437l.35-1.224zm7.252-5.247v6.732h-1.485v-6.732h1.485zm3.234 1.223h-1.835v-1.311h5.155v1.311h-1.835v5.421H53.91v-5.42zm6.378 5.422v-2.71l-2.097-3.935h1.748l.699 1.574c.175.525.35.874.524 1.311.175-.437.35-.786.524-1.311l.7-1.574h1.66l-2.185 3.935v2.797h-1.573v-.087zm12.844-3.235c0 2.186-1.31 3.497-3.32 3.497s-3.145-1.486-3.145-3.41c0-2.01 1.31-3.497 3.232-3.497 2.185 0 3.233 1.487 3.233 3.41zm-4.805.087c0 1.312.611 2.274 1.66 2.274 1.048 0 1.573-.962 1.573-2.273 0-1.224-.525-2.274-1.573-2.274-1.049 0-1.66.962-1.66 2.273zm6.464-3.497h4.107v1.224h-2.534v1.574h2.359v1.224h-2.36v2.71h-1.485v-6.732h-.087zm9.438 0h4.107v1.224h-2.534v1.574h2.359v1.224H85.8v2.71h-1.485v-6.732h-.087zm5.767 0h1.486v5.421h2.62v1.311h-4.106v-6.732zm11.357 3.41c0 2.186-1.31 3.497-3.32 3.497s-3.145-1.486-3.145-3.41c0-2.01 1.31-3.497 3.233-3.497 2.097 0 3.232 1.487 3.232 3.41zm-4.805.087c0 1.312.611 2.274 1.66 2.274 1.048 0 1.573-.962 1.573-2.273 0-1.224-.525-2.274-1.573-2.274-1.049 0-1.66.962-1.66 2.273zm6.64-3.41a12.283 12.283 0 012.01-.175c.961 0 1.66.175 2.184.524.437.35.612.787.612 1.4 0 .874-.612 1.398-1.136 1.66.437.175.699.613.874 1.224.175.787.437 1.662.524 1.924h-1.573c-.087-.175-.262-.7-.436-1.574-.175-.874-.437-1.049-1.136-1.049h-.437v2.623h-1.486V57.18zm1.486 2.885h.611c.787 0 1.224-.35 1.224-.962s-.437-.962-1.136-.962c-.35 0-.612 0-.699.088v1.836zm6.99-2.972v6.732h-1.573v-6.732h1.573zm2.36.175a13.24 13.24 0 012.01-.175c1.31 0 2.096.263 2.708.7.699.524 1.136 1.311 1.136 2.535 0 1.312-.437 2.186-1.136 2.71-.699.613-1.747.875-3.058.875-.786 0-1.311-.087-1.747-.087v-6.558h.087zm1.485 5.42h.525c1.397 0 2.271-.786 2.271-2.36 0-1.399-.786-2.098-2.097-2.098-.349 0-.524 0-.699.087v4.372zm7.427-.611l-.437 1.748h-1.572l2.009-6.732h2.01l2.097 6.732h-1.66l-.524-1.748h-1.923zm1.748-1.137l-.437-1.399c-.087-.437-.262-.874-.35-1.311-.087.437-.174.874-.349 1.311l-.437 1.4h1.573zm8.911-3.847v2.536h2.447v-2.536h1.485v6.732h-1.485v-2.797h-2.447v2.797h-1.485v-6.732h1.485zm10.048 3.847h-2.446v1.573h2.708v1.224h-4.281v-6.732h4.107v1.224h-2.622v1.399h2.447v1.311h.087zm3.932 1.137l-.437 1.748h-1.573l2.01-6.732h2.009l2.097 6.732h-1.66l-.524-1.748h-1.922zm1.747-1.137l-.437-1.399c-.087-.437-.262-.874-.349-1.311-.088.437-.175.874-.35 1.311l-.437 1.4h1.573zm3.757-3.847h1.485v5.421h2.622v1.311h-4.194v-6.732h.087zm5.855 1.223h-1.835v-1.311h5.155v1.311h-1.835v5.421h-1.485v-5.42zm6.203-1.223v2.536h2.447v-2.536h1.485v6.732h-1.485v-2.797h-2.447v2.797h-1.485v-6.732h1.485z" fill="#ECF2F8"/></svg>